<svg width="50" height="50" xmlns="http://www.w3.org/2000/svg">
  <g fill-rule="nonzero" fill="#FFFFFF" id="coin">
   <path id="Shape" d="m26.861701,23.723401l-3.71276,0c-1.54256,0 -2.79788,-1.25531 -2.79788,-2.79787c0,-1.54255 1.25532,-2.79787 2.79788,-2.79787l6.55319,0c0.70213,0 1.27659,-0.57447 1.27659,-1.2766c0,-0.70212 -0.57446,-1.27659 -1.27659,-1.27659l-3.4149,0l0,-2.60638c0,-0.70213 -0.57446,-1.2766 -1.27659,-1.2766c-0.70213,0 -1.2766,0.57447 -1.2766,1.2766l0,2.60638l-0.5851,0c-2.94681,0 -5.35107,2.40425 -5.35107,5.35106c0,2.94681 2.40426,5.35107 5.35107,5.35107l3.71276,0c1.54256,0 2.79787,1.25531 2.79787,2.79787c0,1.54255 -1.25531,2.79787 -2.79787,2.79787l-6.67021,0c-0.70213,0 -1.2766,0.57447 -1.2766,1.2766c0,0.70212 0.57447,1.27659 1.2766,1.27659l3.53191,0l0,2.65958c0,0.70212 0.57447,1.27659 1.2766,1.27659c0.70213,0 1.2766,-0.57447 1.2766,-1.27659l0,-2.65958l0.61702,0c0.01064,0 0.02127,0 0.03191,0c2.9149,-0.04255 5.2766,-2.42553 5.2766,-5.35106c0,-2.95745 -2.39362,-5.35107 -5.34043,-5.35107z"/>
   <path id="Shape" d="m42.680851,7.319151c-4.7234,-4.72341 -11,-7.31915 -17.68085,-7.31915c-6.68085,0 -12.95745,2.59574 -17.68085,7.31915c-4.72341,4.7234 -7.31915,11 -7.31915,17.68085c0,6.68085 2.59574,12.95745 7.31915,17.68085c4.7234,4.72341 11,7.31915 17.68085,7.31915c6.68085,0 12.95745,-2.59574 17.68085,-7.31915c4.72341,-4.7234 7.31915,-11 7.31915,-17.68085c0,-6.68085 -2.59574,-12.95745 -7.31915,-17.68085zm-17.68085,40.12766c-12.37234,0 -22.44681,-10.07447 -22.44681,-22.44681c0,-12.37234 10.07447,-22.44681 22.44681,-22.44681c12.37234,0 22.44681,10.07447 22.44681,22.44681c0,12.37234 -10.07447,22.44681 -22.44681,22.44681z"/>
  </g>
</svg>