<svg width="41" height="70" xmlns="http://www.w3.org/2000/svg">
  <g fill-rule="nonzero" fill="#FFFFFF" id="leaf-copy">
   <path id="Shape" d="m20.519439,57.084633c-10.9972,0 -19.94497,-8.94726 -19.94497,-19.94445c0,-10.65874 19.22601,-35.30108 20.0436,-36.34448c0.22218,-0.28239 0.56998,-0.43605 0.92089,-0.43397c0.35766,0.00934 0.69041,0.18688 0.89753,0.48069c0.73609,1.04184 18.02845,25.67016 18.02845,36.29776c0,10.99719 -8.9483,19.94445 -19.9455,19.94445zm0.94165,-53.66538c-3.90521,5.14483 -18.62022,25.10641 -18.62022,33.72093c0,9.74771 7.93085,17.67805 17.67857,17.67805c9.74772,0 17.67857,-7.93034 17.67857,-17.67805c0,-8.61607 -13.17431,-28.50291 -16.73692,-33.72093z"/>
   <path id="Shape" d="m20.306673,68.966383c-0.62656,0 -1.13268,-0.50664 -1.13268,-1.1332l0,-41.58586c0,-0.62656 0.50612,-1.1332 1.13268,-1.1332c0.62656,0 1.13372,0.50664 1.13372,1.1332l0,41.58586c0,0.62656 -0.50716,1.1332 -1.13372,1.1332z"/>
   <path id="Shape" d="m20.306673,47.696143c-0.28966,0 -0.57984,-0.11005 -0.80098,-0.33171l-10.19933,-10.19934c-0.44228,-0.44279 -0.44228,-1.15967 0,-1.60195c0.44228,-0.44331 1.15968,-0.44331 1.60195,0l10.19986,10.19882c0.44227,0.44279 0.44227,1.16019 0,1.60247c-0.22114,0.22166 -0.51184,0.33171 -0.8015,0.33171z"/>
   <path id="Shape" d="m20.306673,47.696143c-0.26993,0 -0.5409,-0.09552 -0.75789,-0.29018c-0.46512,-0.41892 -0.50249,-1.1358 -0.08461,-1.6004l10.19985,-11.33253c0.4184,-0.46512 1.13528,-0.50198 1.6004,-0.08462c0.46511,0.4184 0.50197,1.1358 0.08357,1.6004l-10.19881,11.33253c-0.22374,0.24917 -0.5326,0.3748 -0.84251,0.3748z"/>
   <path id="Shape" d="m19.772513,33.740573c-0.29796,0 -0.59696,-0.11732 -0.81914,-0.34935l-3.99865,-4.17671c-0.43293,-0.4511 -0.41736,-1.17006 0.0353,-1.60247c0.45058,-0.43241 1.16954,-0.41632 1.60247,0.03582l3.99813,4.1767c0.43345,0.4511 0.41788,1.17006 -0.03478,1.60247c-0.21906,0.21024 -0.50145,0.31354 -0.78333,0.31354z"/>
   <path id="Shape" d="m20.306673,34.097203c-0.28966,0 -0.57984,-0.11057 -0.80098,-0.33171c-0.44279,-0.4428 -0.44279,-1.1602 0,-1.60247l4.53281,-4.53333c0.4428,-0.44227 1.1602,-0.44227 1.60247,0c0.4428,0.4428 0.4428,1.1602 0,1.60247l-4.5328,4.53333c-0.22114,0.22114 -0.51184,0.33171 -0.8015,0.33171z"/>
  </g>
</svg>