<svg width="53" height="54" xmlns="http://www.w3.org/2000/svg">
<g fill-rule="nonzero" fill="#FFFFFF" id="Group-3">
<path id="svg_1" d="m27,29c-8.00813,0 -14.5,-6.49187 -14.5,-14.5c0,-8.00813 6.49187,-14.5 14.5,-14.5c8.00813,0 14.5,6.49187 14.5,14.5c-0.01102,8.00356 -6.49644,14.48898 -14.5,14.5zm0,-26c-6.35127,0 -11.5,5.14873 -11.5,11.5c0,6.35127 5.14873,11.5 11.5,11.5c6.35127,0 11.5,-5.14873 11.5,-11.5c-0.00551,-6.34899 -5.15101,-11.49449 -11.5,-11.5z"/>
<path id="svg_2" d="m51.5,54c-0.82843,0 -1.5,-0.67157 -1.5,-1.5c0,-12.97869 -10.52131,-23.5 -23.5,-23.5c-12.97869,0 -23.5,10.52131 -23.5,23.5c0,0.82843 -0.67157,1.5 -1.5,1.5c-0.82843,0 -1.5,-0.67157 -1.5,-1.5c0,-9.46754 5.05087,-18.2159 13.25,-22.94967c8.19913,-4.73377 18.30087,-4.73377 26.5,0c8.19913,4.73377 13.25,13.48213 13.25,22.94967c0,0.82843 -0.67157,1.5 -1.5,1.5z"/>
</g>
</svg>