<svg xmlns="http://www.w3.org/2000/svg" viewBox="0 0 770 376.23"><defs><style>.cls-1,.cls-17{fill:#b3b3b3;}.cls-2{fill:#3daccc;}.cls-3{fill:#64bdd6;}.cls-16,.cls-4{fill:#999;}.cls-5{fill:#f47b50;}.cls-6{fill:#b5441b;}.cls-7{fill:#f79c7c;}.cls-8{fill:#f15a24;}.cls-9{fill:#603813;}.cls-10{fill:#754c24;}.cls-11{fill:#666;}.cls-12{fill:#fff;}.cls-13{fill:#bf7101;}.cls-14{fill:#fe9601;}.cls-15{fill:gray;}.cls-15,.cls-16,.cls-17,.cls-18{opacity:0.5;}.cls-18{fill:#ccc;}</style></defs><title>categoria-economico</title><g id="Capa_2" data-name="Capa 2"><g id="contenido"><path class="cls-1" d="M162.88,13.71A605.72,605.72,0,0,1,237.75,21c23.63,3.71,46,8.41,67.38,13.52,42.73,10.26,81.66,22,118.49,32.86s71.47,20.85,104.5,28.41,64.31,12.69,93.8,14.27l2.58.14A120.17,120.17,0,0,1,738.06,236.62c-3.36,62.65-54.62,111.51-116.14,113.67-48.34,1.56-94.62-2.51-138.11-8.74s-84.5-14.68-123.15-22.72S285.61,303.08,252.08,298s-64-7.57-89.2-6A139.36,139.36,0,0,1,145.39,13.78q6.5-.4,12.89-.22Z"/><path class="cls-2" d="M725.58,294.79c-163.88,0-291.85-35.86-404.74-67.51C227.33,201.08,139,176.33,44.42,176.33a44.43,44.43,0,0,1,0-88.85c106.81,0,200.84,26.35,300.39,54.25,112.63,31.57,229.1,64.21,380.77,64.21a44.43,44.43,0,0,1,0,88.85Z"/><path class="cls-3" d="M658.1,229h-.19C531.55,221.07,430.12,192.64,332,165.15c-31.82-8.92-61.87-17.34-92.3-24.93a3,3,0,1,1,1.43-5.75c30.52,7.61,60.61,16.05,92.47,25,97.8,27.4,198.92,55.75,324.66,63.64a3,3,0,0,1-.18,5.92Z"/><path class="cls-3" d="M188,128.34a2.88,2.88,0,0,1-.59-.06,797.93,797.93,0,0,0-80.62-12.47,3,3,0,0,1,.59-5.89,803.34,803.34,0,0,1,81.21,12.55,3,3,0,0,1-.59,5.87Z"/><path class="cls-3" d="M91.26,114.45H91l-2.87-.21a3,3,0,0,1,.42-5.91l2.89.21a3,3,0,0,1-.22,5.92Z"/><path class="cls-3" d="M725.58,253.33A1073.29,1073.29,0,0,1,586.9,244.4a3,3,0,0,1,.76-5.88,1067,1067,0,0,0,137.92,8.88,3,3,0,0,1,0,5.93Z"/><path class="cls-3" d="M574.37,242.68l-.41,0-2.49-.35a3,3,0,0,1,.84-5.86l2.47.35a3,3,0,0,1-.41,5.89Z"/><path class="cls-3" d="M553.1,239.49a3.73,3.73,0,0,1-.47,0C471.82,226.54,400.75,206.62,332,187.36c-60.8-17-118.24-33.14-177.45-43a3,3,0,1,1,1-5.84c59.53,9.86,117.11,26,178.08,43.09,68.57,19.21,139.47,39.08,219.94,51.94a3,3,0,0,1-.46,5.89Z"/><path class="cls-3" d="M139.36,142l-.43,0-3.22-.46a3,3,0,0,1,.83-5.87l3.24.47a3,3,0,0,1-.42,5.89Z"/><path class="cls-3" d="M124.14,140l-.37,0a636.85,636.85,0,0,0-79.35-5.06,3,3,0,0,1,0-5.93,642.83,642.83,0,0,1,80.08,5.11,3,3,0,0,1-.36,5.91Z"/><path class="cls-3" d="M688.55,274.91h-.11l-2.74-.09a3,3,0,0,1,.23-5.92l2.72.09a3,3,0,0,1-.1,5.93Z"/><path class="cls-3" d="M671.64,274.19h-.15c-19.91-1-40.13-2.58-60.08-4.7a3,3,0,0,1,.62-5.89c19.85,2.11,40,3.68,59.75,4.67a3,3,0,0,1-.14,5.92Z"/><path class="cls-3" d="M536.61,259a3,3,0,0,1-.51-.05C462,246,395.92,227.48,332,209.57,277.8,194.38,226.59,180,174.16,170.1a3,3,0,0,1,1.1-5.82c52.68,10,104,24.36,158.36,39.59,63.76,17.87,129.69,36.35,203.5,49.2a3,3,0,0,1-.51,5.88Z"/><path class="cls-3" d="M155.06,166.66a2.77,2.77,0,0,1-.49,0c-14.75-2.44-29.32-4.43-43.31-5.92a3,3,0,1,1,.63-5.89c14.1,1.5,28.79,3.51,43.65,6a3,3,0,0,1-.48,5.88Z"/><path class="cls-4" d="M39.3,73.27a836,836,0,0,1,88.51,4.8c29.39,3.15,58.58,7.86,87.46,13.76,57.8,11.81,114.22,28.36,170.44,44.14,28.12,7.89,56.23,15.57,84.48,22.45s56.66,13,85.25,17.88,57.36,8.66,86.24,11.13,57.86,3.69,86.86,3.77h.05a8.89,8.89,0,0,1-.05,17.77q-44.24-.12-88.38-3.83t-87.73-11.33c-29.06-5-57.87-11.16-86.44-18.13S409.1,161,380.91,153.08c-56.37-15.83-112.34-32.23-169.2-43.84-28.41-5.8-57-10.42-85.8-13.5A816.34,816.34,0,0,0,39.3,91h0a8.89,8.89,0,1,1,0-17.77Z"/><path class="cls-4" d="M22.13,172.81A673.73,673.73,0,0,1,110,179.29c29,3.91,57.77,9.24,86.29,15.29,57,12.14,113.2,27,169.34,41.36s112.29,28.19,169,38.71,113.91,17.67,171.2,17.7a8.15,8.15,0,0,1,0,16.29h0c-58.66.09-116.92-7.13-174.23-17.61s-113.89-24.37-170.15-38.59S249.14,223.49,192.68,211.6c-28.23-5.92-56.57-11.11-85-14.88a653.35,653.35,0,0,0-85.52-6.14h0a8.89,8.89,0,1,1,0-17.77Z"/><polygon class="cls-5" points="140.34 259.55 101.07 201.62 227.35 225.87 169.42 265.13 140.34 259.55"/><polygon class="cls-6" points="140.34 259.55 169.42 265.13 208.69 323.06 82.41 298.81 140.34 259.55"/><polygon class="cls-7" points="140.34 259.55 82.41 298.81 101.07 201.62 140.34 259.55"/><polygon class="cls-8" points="169.42 265.13 227.35 225.87 208.69 323.06 169.42 265.13"/><circle class="cls-9" cx="187.91" cy="292.4" r="11.11"/><circle class="cls-10" cx="187.91" cy="292.4" r="8.88"/><circle class="cls-11" cx="187.91" cy="292.4" r="7.4"/><polygon class="cls-5" points="169.34 0 239.8 12.98 198.08 41.72 169.34 0"/><polygon class="cls-6" points="198.08 41.72 226.82 83.45 156.36 70.47 198.08 41.72"/><polygon class="cls-7" points="198.08 41.72 156.36 70.47 169.34 0 198.08 41.72"/><polygon class="cls-8" points="198.08 41.72 239.8 12.98 226.82 83.45 198.08 41.72"/><circle class="cls-9" cx="211.61" cy="61.37" r="8.04"/><circle class="cls-10" cx="211.61" cy="61.37" r="6.43"/><circle class="cls-11" cx="211.61" cy="61.37" r="5.36"/><polygon class="cls-5" points="477.26 282.58 546.56 300.79 502.8 326.33 477.26 282.58"/><polygon class="cls-6" points="502.8 326.33 528.35 370.09 459.05 351.87 502.8 326.33"/><polygon class="cls-7" points="502.8 326.33 459.05 351.87 477.26 282.58 502.8 326.33"/><polygon class="cls-8" points="502.8 326.33 546.56 300.79 528.35 370.09 502.8 326.33"/><circle class="cls-9" cx="514.83" cy="346.93" r="8.04"/><circle class="cls-10" cx="514.83" cy="346.93" r="6.43"/><circle class="cls-11" cx="514.83" cy="346.93" r="5.36"/><polygon class="cls-5" points="613.71 126.97 568.99 73.13 697.04 84.99 643.2 129.7 613.71 126.97"/><polygon class="cls-6" points="613.71 126.97 643.2 129.7 687.91 183.54 559.86 171.68 613.71 126.97"/><polygon class="cls-7" points="613.71 126.97 559.86 171.68 568.99 73.13 613.71 126.97"/><polygon class="cls-8" points="643.2 129.7 697.04 84.99 687.91 183.54 643.2 129.7"/><circle class="cls-9" cx="664.24" cy="155.05" r="11.11"/><circle class="cls-10" cx="664.24" cy="155.05" r="8.88"/><circle class="cls-11" cx="664.24" cy="155.05" r="7.4"/><circle class="cls-12" cx="385" cy="191.13" r="185.1"/><circle class="cls-13" cx="385" cy="191.13" r="81.44"/><circle class="cls-14" cx="385" cy="191.13" r="66.63"/><path class="cls-13" d="M392.4,185.21h-1.48V167.44h16.29a5.92,5.92,0,1,0,0-11.84H390.92v-8.89a5.92,5.92,0,0,0-11.84,0v8.89H377.6a20.73,20.73,0,0,0,0,41.46h1.48v17.77H362.79a5.92,5.92,0,0,0,0,11.84h16.29v8.89a5.92,5.92,0,0,0,11.84,0v-8.89h1.48a20.73,20.73,0,1,0,0-41.46Zm-14.8,0a8.89,8.89,0,1,1,0-17.77h1.48v17.77Zm14.8,29.62h-1.48V197.06h1.48a8.89,8.89,0,1,1,0,17.77Z"/><path class="cls-15" d="M194.5,277.9a8.88,8.88,0,1,0,9.33,13.75A12.57,12.57,0,0,1,194.5,277.9Z"/><path class="cls-16" d="M216.9,286.66A16.28,16.28,0,0,1,204,267.6c0-.12.06-.24.09-.36a12.58,12.58,0,1,0,13.2,19.47C217.14,286.69,217,286.69,216.9,286.66Z"/><path class="cls-17" d="M231.81,279.72A20,20,0,0,1,216,256.32c.1-.52.23-1,.37-1.52a16.28,16.28,0,1,0,17,25.14C232.84,279.88,232.33,279.82,231.81,279.72Z"/><circle class="cls-18" cx="235.58" cy="260.09" r="19.99"/><path class="cls-15" d="M216.31,50.83a6.43,6.43,0,1,0,6.82,9.9A9.09,9.09,0,0,1,216.31,50.83Z"/><path class="cls-16" d="M232.57,57.05a11.79,11.79,0,0,1-9.46-13.73l.06-.26a9.11,9.11,0,1,0,9.66,14Z"/><path class="cls-17" d="M243.32,52a14.48,14.48,0,0,1-11.61-16.86c.07-.37.17-.74.26-1.1a11.79,11.79,0,1,0,12.48,18.1C244.07,52.06,243.7,52,243.32,52Z"/><circle class="cls-18" cx="245.94" cy="37.71" r="14.47"/><path class="cls-15" d="M520.3,336.77a6.43,6.43,0,1,0,6.06,10.39A9.09,9.09,0,0,1,520.3,336.77Z"/><path class="cls-16" d="M536.05,344.2a11.81,11.81,0,0,1-8.41-14.41,1.83,1.83,0,0,0,.08-.25,9.11,9.11,0,1,0,8.59,14.71Z"/><path class="cls-17" d="M547.15,339.91a14.46,14.46,0,0,1-10.31-17.68c.09-.37.22-.72.34-1.08a11.79,11.79,0,1,0,11.08,19C547.89,340.07,547.52,340,547.15,339.91Z"/><circle class="cls-18" cx="550.83" cy="325.91" r="14.47"/><path class="cls-15" d="M669.4,140A8.88,8.88,0,1,0,680,152.75,12.56,12.56,0,0,1,669.4,140Z"/><path class="cls-16" d="M692.54,146.52a16.29,16.29,0,0,1-14.71-17.72c0-.13,0-.24,0-.37a12.58,12.58,0,1,0,15,18.1Z"/><path class="cls-17" d="M706.7,138.16a20,20,0,0,1-18.06-21.75c.05-.52.14-1,.22-1.55a16.29,16.29,0,1,0,19.41,23.37C707.75,138.22,707.23,138.21,706.7,138.16Z"/><circle class="cls-18" cx="708.55" cy="118.26" r="19.99"/></g></g></svg>