<svg xmlns="http://www.w3.org/2000/svg" viewBox="0 0 770 373.15"><defs><style>.cls-1{fill:#00b796;}.cls-2{fill:#b3b3b3;}.cls-3{fill:#999;}.cls-4{fill:#fe9601;}.cls-5{fill:#64bdd6;}.cls-6{fill:#0ace73;}.cls-7{fill:#089b56;}.cls-8{fill:#333;}.cls-9{fill:#0097c2;}.cls-10{fill:#c1272d;}.cls-11{fill:#d2a98b;}.cls-12{fill:#263232;}.cls-13{fill:#93278f;}.cls-14{fill:#efc9ac;}.cls-15{fill:#cc9b5b;}.cls-16{fill:#a67c52;}.cls-17{fill:#5f8092;}.cls-18{fill:#fff;}.cls-19{fill:#c59f84;}.cls-20{fill:#e2bea3;}.cls-21{fill:#ccc;}.cls-22{fill:#c29a6b;}.cls-23{fill:#f4777c;}</style></defs><title>categoria-social</title><g id="Capa_2" data-name="Capa 2"><g id="contenido"><path class="cls-1" d="M162.88,10.64a603.84,603.84,0,0,1,74.87,7.24c23.63,3.72,46,8.42,67.38,13.53,42.73,10.25,81.66,22,118.49,32.85s71.47,20.85,104.5,28.41,64.31,12.69,93.8,14.28l2.58.13A120.18,120.18,0,0,1,738.06,233.55c-3.36,62.64-54.62,111.5-116.14,113.67-48.34,1.56-94.62-2.52-138.11-8.75s-84.5-14.68-123.15-22.71S285.61,300,252.08,294.87s-64-7.57-89.2-6A139.36,139.36,0,0,1,145.39,10.71q6.5-.42,12.89-.23Z"/><path class="cls-2" d="M725.58,291.71c-163.88,0-291.85-35.86-404.74-67.5-93.51-26.21-181.83-51-276.42-51a44.43,44.43,0,0,1,0-88.85c106.81,0,200.84,26.36,300.39,54.26,112.63,31.56,229.1,64.21,380.77,64.21a44.42,44.42,0,0,1,0,88.84Z"/><path class="cls-3" d="M39.3,70.19A836,836,0,0,1,127.81,75c29.39,3.16,58.58,7.87,87.46,13.76,57.8,11.81,114.22,28.37,170.44,44.14,28.12,7.89,56.23,15.57,84.48,22.45s56.66,13,85.25,17.89,57.36,8.66,86.24,11.12,57.86,3.69,86.86,3.78h.05a8.89,8.89,0,0,1-.05,17.77q-44.24-.14-88.38-3.84t-87.73-11.32c-29.06-5-57.87-11.17-86.44-18.13S409.1,157.91,380.91,150c-56.37-15.82-112.34-32.23-169.2-43.84-28.41-5.8-57-10.41-85.8-13.5A816.34,816.34,0,0,0,39.3,88h0a8.89,8.89,0,1,1,0-17.77Z"/><path class="cls-3" d="M22.13,169.73A673.73,673.73,0,0,1,110,176.21c29,3.92,57.77,9.25,86.29,15.29,57,12.14,113.2,27.06,169.34,41.36s112.29,28.19,169,38.71,113.91,17.68,171.2,17.7a8.15,8.15,0,0,1,0,16.29h0c-58.66.09-116.92-7.12-174.23-17.61s-113.89-24.37-170.15-38.59-112.28-29-168.74-40.84c-28.23-5.92-56.57-11.11-85-14.88a655.09,655.09,0,0,0-85.52-6.14h0a8.89,8.89,0,0,1,0-17.77Z"/><path class="cls-4" d="M43.17,125.33l22.32.47a3,3,0,0,1-.12,5.9h-.12l-22.08-.45H43a3,3,0,0,1,.12-5.92Z"/><path class="cls-4" d="M102.58,128.44,124.73,131a2.93,2.93,0,0,1-.66,5.82H124l-22-2.5h-.08a2.94,2.94,0,0,1,.66-5.84Z"/><path class="cls-4" d="M161.46,136.45l21.92,3.91a2.91,2.91,0,1,1-1,5.73h-.06l-21.81-3.88h-.05a2.91,2.91,0,1,1,1-5.74Z"/><path class="cls-4" d="M219.74,147.71l21.72,4.81a2.89,2.89,0,1,1-1.25,5.64h0l-21.66-4.78h0a2.9,2.9,0,1,1,1.25-5.66Z"/><path class="cls-4" d="M277.53,161l21.59,5.31a2.87,2.87,0,1,1-1.38,5.57h0l-21.56-5.29h0a2.88,2.88,0,1,1,1.37-5.59Z"/><path class="cls-4" d="M335,175.41l21.52,5.52a2.85,2.85,0,1,1-1.42,5.51L333.61,181a2.86,2.86,0,1,1,1.41-5.54Z"/><path class="cls-4" d="M392.4,190.11l21.52,5.44h0a2.83,2.83,0,0,1-1.39,5.48L391,195.6a2.84,2.84,0,0,1,1.38-5.5h0Z"/><path class="cls-4" d="M449.83,204.41l21.59,5.12h0a2.81,2.81,0,0,1-1.29,5.47l-21.63-5.12a2.81,2.81,0,1,1,1.29-5.48h0Z"/><path class="cls-4" d="M507.5,217.63l21.7,4.54h0a2.78,2.78,0,1,1-1.14,5.45l-21.77-4.54a2.79,2.79,0,1,1,1.14-5.47h0Z"/><path class="cls-4" d="M565.5,229.08l21.85,3.68h0a2.76,2.76,0,0,1-.92,5.45l-22-3.68a2.77,2.77,0,1,1,.92-5.47h0Z"/><path class="cls-4" d="M623.9,238l22,2.52H646a2.74,2.74,0,1,1-.62,5.45l-22.13-2.51a2.75,2.75,0,0,1,.63-5.47h.06Z"/><path class="cls-4" d="M682.67,243.51l22.1,1h.08a2.72,2.72,0,1,1-.24,5.44l-22.27-1a2.73,2.73,0,1,1,.25-5.45h.08Z"/><path class="cls-5" d="M574.37,239.61l-.41,0-2.49-.36a3,3,0,0,1,.84-5.86l2.47.35a3,3,0,0,1-.41,5.9Z"/><circle class="cls-6" cx="218.52" cy="26.02" r="22.21"/><circle class="cls-6" cx="148.23" cy="268" r="29.62"/><circle class="cls-7" cx="190.93" cy="275.95" r="22.21"/><circle class="cls-6" cx="550.3" cy="332.3" r="29.62"/><circle class="cls-7" cx="595.34" cy="332.3" r="22.21"/><circle class="cls-7" cx="176.65" cy="29.62" r="29.62"/><circle class="cls-6" cx="635.84" cy="324.9" r="29.62"/><circle class="cls-7" cx="601.83" cy="117.65" r="29.62"/><circle class="cls-6" cx="643.24" cy="121.42" r="22.21"/><path class="cls-8" d="M136.08,119.89a2.69,2.69,0,0,1-.4,0L84.31,113a3,3,0,1,1,.79-5.87L136.47,114a3,3,0,0,1-.39,5.9Z"/><path class="cls-8" d="M202.12,128.73a2.55,2.55,0,0,1-.39,0l-51.37-6.88a3,3,0,1,1,.78-5.87l51.37,6.88a3,3,0,0,1-.39,5.89Z"/><path class="cls-9" d="M176.44,125.29a2.68,2.68,0,0,1-.4,0l-66-8.85a3,3,0,1,1,.78-5.87l66.05,8.85a3,3,0,0,1-.39,5.89Z"/><path class="cls-9" d="M168.72,150.41l-.4,0a3,3,0,0,1-2.54-3.33l6.88-51.37a3,3,0,0,1,5.87.79l-6.88,51.37A3,3,0,0,1,168.72,150.41Z"/><path class="cls-10" d="M139.87,136a8.22,8.22,0,0,1-1-.06,7.42,7.42,0,0,1-6.36-8.32l2.95-22a7.41,7.41,0,0,1,14.68,2l-3,22A7.41,7.41,0,0,1,139.87,136Z"/><circle class="cls-11" cx="142.8" cy="117.83" r="7.4"/><path class="cls-12" d="M148.23,110.8a8.88,8.88,0,1,0-2,15.24Z"/><path class="cls-11" d="M143.87,106.87a3,3,0,0,1-.53-5.88l24.86-4.54a3,3,0,1,1,1.07,5.82l-24.86,4.55A3.29,3.29,0,0,1,143.87,106.87Z"/><path class="cls-11" d="M163,145.43a2.92,2.92,0,0,1-1.28-.29l-22.79-10.93a3,3,0,1,1,2.57-5.34l22.78,10.93a3,3,0,0,1-1.28,5.63Z"/><path class="cls-10" d="M143.87,108.35a4.44,4.44,0,0,1-.79-8.81l7.06-1.3a4.44,4.44,0,0,1,1.6,8.74l-7.06,1.3A4.43,4.43,0,0,1,143.87,108.35Z"/><path class="cls-10" d="M147,139.28a4.52,4.52,0,0,1-1.92-.44l-6.87-3.3a4.44,4.44,0,0,1,3.85-8l6.86,3.3a4.45,4.45,0,0,1-1.92,8.45Z"/><path class="cls-8" d="M738,271.43h-.12l-51.78-2.19a3,3,0,1,1,.25-5.91l51.78,2.18a3,3,0,0,1-.13,5.92Z"/><path class="cls-8" d="M671.39,268.62h-.13l-51.78-2.18a3,3,0,0,1,.25-5.92l51.78,2.18a3,3,0,0,1-.12,5.92Z"/><path class="cls-9" d="M712.07,270.34H712l-66.58-2.81a3,3,0,0,1,.25-5.92l66.58,2.81a3,3,0,0,1-.13,5.92Z"/><path class="cls-9" d="M648.72,293.6h-.13a3,3,0,0,1-2.83-3.08l2.18-51.78a3,3,0,1,1,5.92.25l-2.19,51.78A2.94,2.94,0,0,1,648.72,293.6Z"/><path class="cls-13" d="M680.41,284.56h-.31a7.4,7.4,0,0,1-7.09-7.7l.94-22.2a7.4,7.4,0,1,1,14.79.63l-.93,22.19A7.41,7.41,0,0,1,680.41,284.56Z"/><circle class="cls-14" cx="679.4" cy="266" r="7.4"/><path class="cls-15" d="M674.63,273.49a8.89,8.89,0,1,0,.65-15.36Z"/><path class="cls-14" d="M655.25,289.71a3,3,0,0,1-.79-5.82l24.34-6.78a3,3,0,1,1,1.59,5.7l-24.34,6.79A3.21,3.21,0,0,1,655.25,289.71Z"/><path class="cls-14" d="M680.77,255.07a2.88,2.88,0,0,1-1-.19l-23.69-8.81a3,3,0,0,1,2.07-5.56l23.68,8.82a3,3,0,0,1-1,5.74Z"/><path class="cls-13" d="M672.67,286.33a4.44,4.44,0,0,1-1.19-8.72l6.92-1.93a4.44,4.44,0,0,1,2.39,8.56l-6.92,1.93A4.5,4.5,0,0,1,672.67,286.33Z"/><path class="cls-13" d="M680.77,256.55a4.42,4.42,0,0,1-1.55-.28l-7.14-2.66a4.44,4.44,0,0,1,3.1-8.32l7.14,2.65a4.45,4.45,0,0,1-1.55,8.61Z"/><rect class="cls-16" x="49.99" y="216.77" width="75.36" height="19.25" transform="translate(34.51 -10.49) rotate(8.52)"/><path class="cls-16" d="M123.52,244.46a2.28,2.28,0,0,1-.45,0L48.54,233.26a3,3,0,0,1-1.94-1.17,3,3,0,0,1-.54-2.2l2.85-19a3,3,0,0,1,3.37-2.49l74.52,11.17a3,3,0,0,1,2,1.17,3,3,0,0,1,.54,2.2l-2.85,19A3,3,0,0,1,123.52,244.46ZM52.35,227.84,121,238.13,123,225,54.33,214.66Z"/><path class="cls-17" d="M62,228a5,5,0,0,1-.77-.06,5.17,5.17,0,0,1-4.36-5.89L59,207.43A5.18,5.18,0,1,1,69.29,209L67.1,223.61A5.2,5.2,0,0,1,62,228Z"/><path class="cls-17" d="M70.77,229.34a6.81,6.81,0,0,1-.78-.05,5.2,5.2,0,0,1-4.36-5.9l2.2-14.64a5.18,5.18,0,1,1,10.25,1.53l-2.19,14.65A5.19,5.19,0,0,1,70.77,229.34Z"/><path class="cls-13" d="M77.36,231.81a6.82,6.82,0,0,1-1-.07l-22-3.29a6.66,6.66,0,1,1,2-13.18l22,3.29a6.66,6.66,0,0,1-1,13.25Z"/><circle class="cls-14" cx="66.59" cy="222.04" r="7.4"/><path class="cls-15" d="M59.64,216.5a8.88,8.88,0,1,0,15.21,2.28Z"/><path class="cls-14" d="M53.12,223.78a3,3,0,0,1-2.92-2.48l-2.27-13.59a3,3,0,0,1,.93-2.68l7.3-6.63a3,3,0,1,1,4,4.38L54,208.33l2,12a3,3,0,0,1-2.43,3.41A4,4,0,0,1,53.12,223.78Z"/><path class="cls-13" d="M53.12,225.26a4.45,4.45,0,0,1-4.38-3.71l-1.18-7.09A4.44,4.44,0,0,1,56.32,213l1.19,7.08a4.45,4.45,0,0,1-4.39,5.18Z"/><path class="cls-14" d="M79.85,227.78a3,3,0,0,1-2.65-4.28l5.43-10.89-4.21-7.09a3,3,0,0,1,5.1-3l5,8.49a3,3,0,0,1,.1,2.83L82.5,226.14A3,3,0,0,1,79.85,227.78Z"/><path class="cls-13" d="M79.85,229.26a4.37,4.37,0,0,1-2-.47,4.44,4.44,0,0,1-2-5.95l3.21-6.43a4.44,4.44,0,1,1,8,4l-3.21,6.42A4.42,4.42,0,0,1,79.85,229.26Z"/><path class="cls-17" d="M104.47,234.39a6.78,6.78,0,0,1-.77,0,5.2,5.2,0,0,1-4.36-5.9l2.19-14.64a5.19,5.19,0,0,1,10.26,1.53L109.59,230A5.17,5.17,0,0,1,104.47,234.39Z"/><path class="cls-17" d="M113.26,235.71a5.22,5.22,0,0,1-.78-.06,5.17,5.17,0,0,1-4.35-5.89l2.19-14.65a5.18,5.18,0,0,1,10.25,1.54l-2.19,14.64A5.2,5.2,0,0,1,113.26,235.71Z"/><path class="cls-10" d="M119.85,238.18a6.85,6.85,0,0,1-1-.08l-22-3.29a6.66,6.66,0,0,1,2-13.18l22,3.29a6.67,6.67,0,0,1-1,13.26Z"/><circle class="cls-14" cx="109.08" cy="228.4" r="7.4"/><path class="cls-15" d="M102.14,222.87a8.75,8.75,0,0,0-1.85,4.22,8.88,8.88,0,1,0,17.57,2.63,8.78,8.78,0,0,0-.52-4.57Z"/><path class="cls-14" d="M95.61,230.14a3,3,0,0,1-2.92-2.47l-2.26-13.59a3,3,0,0,1,.92-2.68l7.3-6.64a3,3,0,0,1,4,4.38l-6.11,5.55,2,12a3,3,0,0,1-2.44,3.41A2.7,2.7,0,0,1,95.61,230.14Z"/><path class="cls-10" d="M95.61,231.62a4.46,4.46,0,0,1-4.38-3.71l-1.18-7.08a4.45,4.45,0,0,1,8.77-1.46l1.18,7.08a4.44,4.44,0,0,1-3.65,5.11A4.71,4.71,0,0,1,95.61,231.62Z"/><path class="cls-14" d="M122.34,234.15a3,3,0,0,1-2.65-4.29L125.12,219l-4.2-7.1a3,3,0,1,1,5.09-3l5,8.48a3,3,0,0,1,.11,2.84L125,232.51A3,3,0,0,1,122.34,234.15Z"/><path class="cls-10" d="M122.34,235.63a4.45,4.45,0,0,1-4-6.43l3.2-6.42a4.44,4.44,0,1,1,8,4l-3.2,6.43A4.45,4.45,0,0,1,122.34,235.63Z"/><rect class="cls-16" x="644.07" y="145.84" width="75.36" height="19.25" transform="translate(1369.17 283.55) rotate(177.71)"/><path class="cls-16" d="M644.49,169.55a3,3,0,0,1-3-2.85l-.77-19.23a3,3,0,0,1,2.84-3.08l75.3-3a2.94,2.94,0,0,1,2.13.78,3.06,3.06,0,0,1,1,2.06l.77,19.24a3,3,0,0,1-2.85,3.07l-75.29,3Zm2.31-19.36.53,13.32,69.38-2.78-.53-13.31Z"/><path class="cls-17" d="M708.25,174.11a5.18,5.18,0,0,1-5.17-5l-.6-14.79a5.18,5.18,0,0,1,10.36-.42l.59,14.8a5.17,5.17,0,0,1-5,5.38Z"/><path class="cls-17" d="M699.37,174.46a5.18,5.18,0,0,1-5.17-5l-.59-14.8a5.18,5.18,0,0,1,10.35-.41l.6,14.79a5.2,5.2,0,0,1-5,5.39Z"/><path class="cls-13" d="M692.12,161.41a6.66,6.66,0,0,1-.26-13.32l22.19-.89a6.67,6.67,0,0,1,.54,13.32l-22.2.89Z"/><circle class="cls-14" cx="703.28" cy="155.79" r="7.4"/><path class="cls-15" d="M711.14,159.92a8.74,8.74,0,0,0,1-4.49,8.88,8.88,0,1,0-17.75.71,8.75,8.75,0,0,0,1.37,4.39Z"/><path class="cls-14" d="M715.59,178.24a3,3,0,0,1-2.37-4.74l5-6.6L714,155.49a3,3,0,1,1,5.55-2.06l4.78,12.93a2.93,2.93,0,0,1-.41,2.8L718,177.05A3,3,0,0,1,715.59,178.24Z"/><path class="cls-13" d="M719.23,165.64a4.44,4.44,0,0,1-4.17-2.9L712.57,156a4.44,4.44,0,0,1,8.33-3.08l2.49,6.74a4.45,4.45,0,0,1-4.16,6Z"/><path class="cls-14" d="M692.54,179.16a3,3,0,0,1-2.22-1l-6.54-7.39a3,3,0,0,1-.63-2.76l3.73-13.27a3,3,0,0,1,5.7,1.6l-3.29,11.72,5.46,6.17a3,3,0,0,1-2.21,4.93Z"/><path class="cls-13" d="M687.79,166.9a4.14,4.14,0,0,1-1.2-.17,4.44,4.44,0,0,1-3.08-5.48l2-6.91a4.44,4.44,0,0,1,8.55,2.4l-1.94,6.92A4.46,4.46,0,0,1,687.79,166.9Z"/><path class="cls-17" d="M665.32,175.83a5.19,5.19,0,0,1-5.18-5l-.59-14.8a5.18,5.18,0,0,1,10.36-.41l.59,14.8a5.17,5.17,0,0,1-5,5.38Z"/><path class="cls-17" d="M656.44,176.18a5.18,5.18,0,0,1-5.17-5l-.6-14.79A5.18,5.18,0,0,1,661,156l.59,14.8a5.19,5.19,0,0,1-5,5.39Z"/><path class="cls-10" d="M649.19,163.13a6.66,6.66,0,0,1-.26-13.32l22.19-.89a6.67,6.67,0,1,1,.53,13.32l-22.19.89Z"/><circle class="cls-14" cx="660.35" cy="157.5" r="7.4"/><path class="cls-15" d="M668.21,161.64a8.89,8.89,0,1,0-15.36.61Z"/><path class="cls-14" d="M672.66,180a3,3,0,0,1-2.37-4.74l5-6.59L671,157.21a3,3,0,1,1,5.55-2.06l4.78,12.93a3,3,0,0,1-.41,2.8L675,178.77A3,3,0,0,1,672.66,180Z"/><path class="cls-10" d="M676.29,167.36a4.44,4.44,0,0,1-4.16-2.9l-2.49-6.74a4.44,4.44,0,1,1,8.33-3.08l2.49,6.73a4.44,4.44,0,0,1-2.63,5.71A4.32,4.32,0,0,1,676.29,167.36Z"/><path class="cls-14" d="M649.6,180.88a3,3,0,0,1-2.22-1l-6.53-7.39a3,3,0,0,1-.63-2.77L644,156.46a3,3,0,1,1,5.7,1.6l-3.29,11.71,5.46,6.18a3,3,0,0,1-2.22,4.93Z"/><path class="cls-10" d="M644.86,168.62a4.65,4.65,0,0,1-1.21-.17,4.44,4.44,0,0,1-3.07-5.48l1.94-6.91a4.45,4.45,0,0,1,8.56,2.4l-2,6.92A4.44,4.44,0,0,1,644.86,168.62Z"/><circle class="cls-18" cx="385" cy="188.06" r="185.1"/><path class="cls-15" d="M473.45,195.46l-21.12-23.27L384.6,269.5h60.53a28.32,28.32,0,0,0,28.32-28.31Z"/><path class="cls-11" d="M310.56,195.46a74,74,0,0,0,74,74V121.42A74,74,0,0,0,310.56,195.46Z"/><path class="cls-14" d="M458.64,195.46a74,74,0,0,0-74-74V269.5A74,74,0,0,0,458.64,195.46Z"/><path class="cls-12" d="M296.67,182.67a11.11,11.11,0,1,0,22,3.14,66.26,66.26,0,0,1,10.54-27.37h55.4V106.62A88.86,88.86,0,0,0,296.67,182.67Z"/><path class="cls-15" d="M450.54,185.81a11.16,11.16,0,0,0,11,9.65h11.9a88.84,88.84,0,0,0-88.85-88.84v51.82H440A66.25,66.25,0,0,1,450.54,185.81Z"/><path class="cls-14" d="M467.53,191.41a10,10,0,0,0-10.68-10,10.24,10.24,0,0,0-9.35,10.33v9.39a8.29,8.29,0,0,0,7.57,8.37,8.1,8.1,0,0,0,8.65-8.09c0-.23,0-.46,0-.68a2.65,2.65,0,0,1,.78-2.15A10,10,0,0,0,467.53,191.41Z"/><path class="cls-11" d="M302.47,191.41a10,10,0,0,1,10.68-10,10.24,10.24,0,0,1,9.35,10.33v9.39a8.29,8.29,0,0,1-7.57,8.37,8.1,8.1,0,0,1-8.65-8.09c0-.23,0-.46,0-.68a2.65,2.65,0,0,0-.78-2.15A10,10,0,0,1,302.47,191.41Z"/><circle class="cls-18" cx="355.73" cy="186.68" r="11.11"/><circle class="cls-18" cx="413.48" cy="186.68" r="11.11"/><path class="cls-19" d="M381,199.3l-6.44,6.45a8.34,8.34,0,0,0,10.09,13.11V197.79A5.14,5.14,0,0,0,381,199.3Z"/><path class="cls-20" d="M394.7,217.57a8.37,8.37,0,0,0,0-11.82l-6.45-6.45a5.14,5.14,0,0,0-3.65-1.51v21.07A8.34,8.34,0,0,0,394.7,217.57Z"/><circle class="cls-21" cx="355.73" cy="189.65" r="5.07"/><circle class="cls-21" cx="413.48" cy="189.65" r="5.07"/><path class="cls-22" d="M348.35,232.48a51.6,51.6,0,0,0,36.25,14.81V232.48Z"/><path class="cls-23" d="M384.6,232.48v14.81a51.64,51.64,0,0,0,36.26-14.81Z"/></g></g></svg>