<svg xmlns="http://www.w3.org/2000/svg" viewBox="0 0 770 375.57"><defs><style>.cls-1{fill:#00b796;}.cls-2{fill:#b5aa86;}.cls-3{fill:#3daccc;}.cls-4{fill:#64bdd6;}.cls-5{fill:#0ace73;}.cls-6{fill:#089b56;}.cls-7{opacity:0.3;}.cls-8{fill:#5f8092;}.cls-9{fill:#fff;}.cls-10{fill:#0097c2;}.cls-11{fill:#fe9601;}.cls-12{fill:#455ea3;}</style></defs><title>categoria-ambiental</title><g id="Capa_2" data-name="Capa 2"><g id="contenido"><path class="cls-1" d="M162.88,13.06a603.84,603.84,0,0,1,74.87,7.24c23.63,3.71,46,8.42,67.38,13.52,42.73,10.26,81.66,22,118.49,32.86s71.47,20.85,104.5,28.41,64.31,12.69,93.8,14.27l2.58.14A120.18,120.18,0,0,1,738.06,236c-3.36,62.64-54.62,111.5-116.14,113.67-48.34,1.55-94.62-2.52-138.11-8.75s-84.5-14.68-123.15-22.72-75.05-15.75-108.58-20.88-64-7.57-89.2-6A139.36,139.36,0,0,1,145.39,13.12q6.5-.4,12.89-.22Z"/><path class="cls-2" d="M39.3,74.09a836.77,836.77,0,0,1,88.41,4.26c29.37,3,58.57,7.51,87.48,13.23C273,103,329.57,119.25,385.88,134.68c28.17,7.72,56.32,15.22,84.59,21.93s56.69,12.61,85.27,17.34a1024.52,1024.52,0,0,0,172.8,13.81h.05a11.67,11.67,0,0,1,.1,23.34h-.15q-44.35-.39-88.58-4.38t-87.82-11.87c-29.07-5.17-57.89-11.53-86.43-18.67s-56.83-15.05-85-23.13c-56.28-16.17-112.12-32.91-168.93-44.88-28.4-6-57-10.77-85.79-14A818.19,818.19,0,0,0,39.3,88.9h0a7.41,7.41,0,0,1,0-14.81Z"/><path class="cls-2" d="M22.13,169.27a675.64,675.64,0,0,1,88.18,7c29.09,4.11,57.84,9.62,86.35,15.86,57,12.5,113.09,27.77,169.15,42.43s112.09,28.89,168.72,39.77,113.86,18.41,171.27,18.8h0a7.41,7.41,0,0,1,0,14.81c-58.66.33-117-6.65-174.36-16.9s-114.05-23.91-170.37-37.91-112.4-28.48-168.84-40.11c-28.22-5.8-56.52-10.86-84.91-14.5a650.79,650.79,0,0,0-85.19-5.75h-.06A11.77,11.77,0,0,1,22,169.27Z"/><path class="cls-3" d="M725.58,294.13c-163.88,0-291.85-35.86-404.74-67.5-93.51-26.21-181.83-51-276.42-51a44.43,44.43,0,0,1,0-88.85c106.81,0,200.84,26.35,300.39,54.26,112.63,31.56,229.1,64.2,380.77,64.2a44.43,44.43,0,0,1,0,88.85Z"/><path class="cls-4" d="M658.1,228.35h-.19C531.55,220.41,430.12,192,332,164.49c-31.82-8.92-61.87-17.34-92.3-24.93a3,3,0,1,1,1.43-5.75c30.52,7.61,60.61,16.05,92.47,25,97.8,27.41,198.92,55.75,324.66,63.64a3,3,0,0,1-.18,5.92Z"/><path class="cls-4" d="M188,127.68a2.88,2.88,0,0,1-.59-.06,797.93,797.93,0,0,0-80.62-12.47,3,3,0,0,1,.59-5.89,803.34,803.34,0,0,1,81.21,12.55,3,3,0,0,1-.59,5.87Z"/><path class="cls-4" d="M91.26,113.79H91l-2.87-.21a3,3,0,0,1,.42-5.91l2.89.21a3,3,0,0,1-.22,5.92Z"/><path class="cls-4" d="M725.58,252.67a1073.29,1073.29,0,0,1-138.68-8.93,3,3,0,0,1,.76-5.87,1068.76,1068.76,0,0,0,137.92,8.87,3,3,0,0,1,0,5.93Z"/><path class="cls-4" d="M574.37,242l-.41,0-2.49-.35a3,3,0,0,1,.84-5.86l2.47.35a3,3,0,0,1-.41,5.89Z"/><path class="cls-4" d="M553.1,238.83a2.49,2.49,0,0,1-.47,0C471.82,225.88,400.75,206,332,186.7c-60.8-17-118.24-33.14-177.45-42.95a3,3,0,1,1,1-5.84c59.53,9.86,117.11,26,178.08,43.09,68.57,19.22,139.47,39.09,219.94,51.94a3,3,0,0,1-.46,5.89Z"/><path class="cls-4" d="M139.36,141.35l-.43,0-3.22-.46a3,3,0,0,1,.83-5.87l3.24.47a3,3,0,0,1-.42,5.89Z"/><path class="cls-4" d="M124.14,139.3l-.37,0a636.85,636.85,0,0,0-79.35-5.06,3,3,0,0,1,0-5.93,642.88,642.88,0,0,1,80.08,5.12,3,3,0,0,1-.36,5.9Z"/><path class="cls-4" d="M688.55,274.25h-.11l-2.74-.1a3,3,0,0,1,.23-5.92l2.72.1a3,3,0,0,1-.1,5.92Z"/><path class="cls-4" d="M671.64,273.53h-.15c-19.91-1-40.13-2.58-60.08-4.7a3,3,0,0,1,.62-5.89c19.85,2.11,40,3.68,59.75,4.67a3,3,0,0,1-.14,5.92Z"/><path class="cls-4" d="M536.61,258.29a3,3,0,0,1-.51-.05C462,245.34,395.92,226.82,332,208.91c-54.23-15.19-105.44-29.55-157.87-39.47a3,3,0,0,1,1.1-5.82c52.68,10,104,24.36,158.36,39.59,63.76,17.87,129.69,36.35,203.5,49.2a3,3,0,0,1-.51,5.88Z"/><path class="cls-4" d="M155.06,166a2.81,2.81,0,0,1-.49,0c-14.75-2.44-29.32-4.43-43.31-5.92a3,3,0,1,1,.63-5.89c14.1,1.5,28.79,3.51,43.65,6a3,3,0,0,1-.48,5.89Z"/><circle class="cls-5" cx="230.37" cy="59.23" r="59.23"/><circle class="cls-5" cx="142.32" cy="250.02" r="74.04"/><circle class="cls-6" cx="230.37" cy="279.85" r="59.23"/><circle class="cls-5" cx="527.79" cy="284.65" r="74.04"/><circle class="cls-6" cx="601.83" cy="128.28" r="44.42"/><circle class="cls-5" cx="661.06" cy="166.01" r="59.23"/><g class="cls-7"><path class="cls-8" d="M496.34,195.81a22.08,22.08,0,0,1-3.84-.34.74.74,0,0,1,.25-1.46,18.39,18.39,0,0,0,3.6.32,17.88,17.88,0,0,0,2.08-.11.74.74,0,1,1,.17,1.47C497.85,195.77,497.13,195.79,496.34,195.81Zm7.86-1.62a.74.74,0,0,1-.29-1.42,26.46,26.46,0,0,0,5-2.83.75.75,0,0,1,1,.17.76.76,0,0,1-.18,1,28.26,28.26,0,0,1-5.27,3A.75.75,0,0,1,504.2,194.19ZM487,193.83a1,1,0,0,1-.28-.05,44.75,44.75,0,0,1-5.4-2.66.74.74,0,0,1,.74-1.29,41.13,41.13,0,0,0,5.22,2.57.74.74,0,0,1,.41,1A.76.76,0,0,1,487,193.83Zm27-6.3a.71.71,0,0,1-.54-.24.73.73,0,0,1,0-1c1.26-1.16,2.59-2.47,4.18-4.13a.73.73,0,0,1,1,0,.72.72,0,0,1,0,1c-1.62,1.69-3,3-4.25,4.2A.73.73,0,0,1,513.91,187.53Zm128.75-2.92q-1.36,0-2.67-.06a.73.73,0,0,1-.71-.77.76.76,0,0,1,.77-.71q1.29.06,2.64.06c1,0,2.13,0,3.21-.08a.76.76,0,0,1,.78.71.74.74,0,0,1-.71.77C644.85,184.58,643.7,184.58,642.66,184.61Zm-8.52-.6H634a54.46,54.46,0,0,1-5.87-1.19.74.74,0,0,1,.37-1.44,52.49,52.49,0,0,0,5.71,1.16.74.74,0,0,1-.1,1.48Zm-11.42-3a.86.86,0,0,1-.27-.05c-1.78-.68-3.57-1.47-5.48-2.39a.75.75,0,0,1-.34-1,.74.74,0,0,1,1-.34c1.87.9,3.62,1.67,5.36,2.33a.75.75,0,0,1,.43,1A.73.73,0,0,1,622.72,181Zm-100.53-2a.73.73,0,0,1-.54-1.24c1.33-1.43,2.69-2.88,4.09-4.31a.73.73,0,0,1,1,0,.74.74,0,0,1,0,1.05c-1.39,1.42-2.74,2.86-4.07,4.29A.76.76,0,0,1,522.19,179.05Zm89.87-3.15a.7.7,0,0,1-.36-.1q-2.57-1.44-5.14-3a.74.74,0,0,1-.27-1,.75.75,0,0,1,1-.27c1.71,1,3.41,2,5.11,2.95a.74.74,0,0,1,.29,1A.76.76,0,0,1,612.06,175.9Zm-81.55-5.28a.74.74,0,0,1-.5-1.29c1.57-1.44,3.07-2.7,4.57-3.86a.76.76,0,0,1,1,.14.74.74,0,0,1-.14,1c-1.47,1.13-2.93,2.36-4.47,3.77A.74.74,0,0,1,530.51,170.62Zm71.3-.64a.71.71,0,0,1-.37-.1c-1.87-1.06-3.57-2-5.18-2.79a.74.74,0,0,1,.68-1.32c1.62.83,3.34,1.75,5.23,2.82a.74.74,0,0,1,.28,1A.73.73,0,0,1,601.81,170Zm-10.56-5.33a.8.8,0,0,1-.3-.06c-1.81-.79-3.65-1.5-5.46-2.13a.74.74,0,0,1-.45-.94.73.73,0,0,1,.94-.46c1.84.64,3.72,1.37,5.56,2.17a.73.73,0,0,1,.39,1A.75.75,0,0,1,591.25,164.65Zm-51.32-1.17a.74.74,0,0,1-.38-1.38,41.54,41.54,0,0,1,5.38-2.69.74.74,0,0,1,1,.4.75.75,0,0,1-.41,1,40.48,40.48,0,0,0-5.19,2.59A.75.75,0,0,1,539.93,163.48Zm40.15-2.71-.19,0c-1.85-.49-3.78-.93-5.71-1.29a.74.74,0,0,1,.27-1.46c2,.37,3.93.82,5.82,1.32a.74.74,0,0,1,.53.9A.75.75,0,0,1,580.08,160.77ZM550.83,159a.75.75,0,0,1-.72-.57.74.74,0,0,1,.55-.89,38.69,38.69,0,0,1,5.94-.93.74.74,0,1,1,.12,1.47,38.51,38.51,0,0,0-5.72.9Zm17.64-.44h-.09c-1.81-.22-3.68-.39-5.58-.51h-.27a.75.75,0,0,1-.69-.79.74.74,0,0,1,.78-.69l.28,0c1.92.12,3.82.29,5.66.51a.74.74,0,0,1-.09,1.48Z"/></g><circle class="cls-9" cx="385" cy="190.48" r="185.1"/><path class="cls-10" d="M437.35,153.46,385,101.1V279.85a74,74,0,0,0,52.35-126.39Z"/><path class="cls-1" d="M332.65,153.46A74,74,0,0,0,385,279.85V101.1Z"/><path class="cls-3" d="M407.31,258.7a4.45,4.45,0,0,1-1.86-8.48,49.25,49.25,0,0,0,22.81-21.67,4.44,4.44,0,1,1,7.86,4.13,58,58,0,0,1-26.95,25.61A4.37,4.37,0,0,1,407.31,258.7Zm34.23-41.19c.22-1.11.42-2.22.58-3.33a4.44,4.44,0,0,0-8.79-1.29c-.14,1-.3,1.89-.5,2.83a4.46,4.46,0,0,0,3.46,5.25,4.58,4.58,0,0,0,.9.09A4.46,4.46,0,0,0,441.54,217.51Z"/><path class="cls-5" d="M337,186.72a4.41,4.41,0,0,0,3.14-1.31l9.83-9.82a4.44,4.44,0,1,0-6.28-6.28l-9.83,9.82a4.45,4.45,0,0,0,3.14,7.59Z"/><path class="cls-5" d="M367.4,156.31a4.41,4.41,0,0,0,3.14-1.31L385,140.55V128l-20.74,20.73a4.45,4.45,0,0,0,3.14,7.59Z"/><path class="cls-5" d="M340.58,210.21l-10.67,10.68a4.44,4.44,0,0,0,6.28,6.28l10.67-10.68a4.44,4.44,0,1,0-6.28-6.28Z"/><path class="cls-5" d="M356,167.76a4.44,4.44,0,0,0,3.14-1.3l1.55-1.55a4.44,4.44,0,1,0-6.28-6.28l-1.55,1.55a4.44,4.44,0,0,0,3.14,7.58Z"/><path class="cls-5" d="M385,241.4l-16.83,16.84a4.44,4.44,0,0,0,6.28,6.28L385,254Z"/><path class="cls-5" d="M373,228.2l12-12V203.6l-18.32,18.32a4.44,4.44,0,0,0,3.14,7.58A4.4,4.4,0,0,0,373,228.2Z"/><path class="cls-5" d="M357,231.58l-5.48,5.48a4.44,4.44,0,0,0,6.28,6.28l5.48-5.48a4.44,4.44,0,0,0-6.28-6.28Z"/><path class="cls-5" d="M353.49,208a4.42,4.42,0,0,0,3.14-1.31L385,178.35V165.79l-34.65,34.65a4.45,4.45,0,0,0,3.14,7.59Z"/><path class="cls-11" d="M233,102.57a10.19,10.19,0,0,1-4-4.89.87.87,0,0,0-.86-.66c-.28,0-1.15,0-2.35,4s-.47,4.4-.24,4.56a.72.72,0,0,0,.22.12.94.94,0,0,0,.85-.2,10.18,10.18,0,0,1,6.05-1.9.58.58,0,0,0,.32-1.08Zm-6.72,2.51Z"/><path class="cls-12" d="M230.43,86.44a.54.54,0,0,0-.59-.28.69.69,0,0,0-.55.5,14.78,14.78,0,0,1-14.16,10.47,4.08,4.08,0,0,1-1.57-4.53.59.59,0,0,0-.2-.66.6.6,0,0,0-.69,0,7.76,7.76,0,0,0-2.82,9.39.56.56,0,0,0,.36.31.78.78,0,0,0,.22,0,.63.63,0,0,0,.54-.45,4.08,4.08,0,0,1,3.81-2.88,14.77,14.77,0,0,1,6,16.53l.36.11,0,.06h-.46a.59.59,0,0,0,.21.64.66.66,0,0,0,.19.09.59.59,0,0,0,.5-.07,24.14,24.14,0,0,0,8.77-29.23Z"/><path class="cls-11" d="M677.49,177.84a10.2,10.2,0,0,1-5.69-2.75.85.85,0,0,0-1-.23c-.26.13-1,.53-.43,4.66s1.44,4.19,1.71,4.24a1,1,0,0,0,.26,0,.94.94,0,0,0,.68-.53,10.16,10.16,0,0,1,4.68-4.28.58.58,0,0,0,.34-.62A.57.57,0,0,0,677.49,177.84Zm-5,5.11Z"/><path class="cls-12" d="M668.31,164.32a.57.57,0,0,0-.67,0,.69.69,0,0,0-.28.69,14.78,14.78,0,0,1-8.4,15.47,4.1,4.1,0,0,1-3.35-3.45.58.58,0,0,0-1.08-.23,7.73,7.73,0,0,0,1.41,9.7.56.56,0,0,0,.45.13.6.6,0,0,0,.52-.7,4.05,4.05,0,0,1,2.23-4.22,14.74,14.74,0,0,1,12.46,12.43l.37-.06.06,0-.41.18a.59.59,0,0,0,.46.5h.2a.54.54,0,0,0,.42-.28,24.12,24.12,0,0,0-4.39-30.2Z"/><path class="cls-11" d="M74.62,237.14a10.17,10.17,0,0,1,2,6,.87.87,0,0,0,.56.92c.27.09,1.1.38,3.66-2.93s2-3.94,1.86-4.17a.68.68,0,0,0-.17-.19.94.94,0,0,0-.86-.12,10.14,10.14,0,0,1-6.32-.41.59.59,0,0,0-.69.19A.6.6,0,0,0,74.62,237.14Zm7.17.07Z"/><path class="cls-12" d="M71.25,253.13a.56.56,0,0,0,.46.47.7.7,0,0,0,.7-.27,14.76,14.76,0,0,1,17-4.67,4.07,4.07,0,0,1-.17,4.79.59.59,0,0,0,.59,1,7.76,7.76,0,0,0,6-7.75.55.55,0,0,0-.22-.41.78.78,0,0,0-.2-.11.6.6,0,0,0-.66.22,4.08,4.08,0,0,1-4.59,1.32,14.76,14.76,0,0,1,.31-17.6l-.3-.23v-.06l.41.17a.59.59,0,0,0,0-.68.5.5,0,0,0-.14-.15A.56.56,0,0,0,90,229a24.13,24.13,0,0,0-18.71,24.12Z"/><path class="cls-11" d="M534.7,249.39a10.14,10.14,0,0,1-1.24,6.19.88.88,0,0,0,0,1.08c.19.21.77.87,4.62-.76s3.7-2.43,3.68-2.72a1,1,0,0,0-.06-.24.93.93,0,0,0-.69-.53,10.17,10.17,0,0,1-5.31-3.46.59.59,0,0,0-.69-.18A.58.58,0,0,0,534.7,249.39Zm6.2,3.59Z"/><path class="cls-12" d="M523.91,261.66a.55.55,0,0,0,.16.64.73.73,0,0,0,.74.11,14.75,14.75,0,0,1,17.08,4.26,4.08,4.08,0,0,1-2.5,4.09.6.6,0,0,0-.38.58.59.59,0,0,0,.42.54,7.81,7.81,0,0,0,5.2-.29,7.72,7.72,0,0,0,3.84-3.51.55.55,0,0,0,0-.47.76.76,0,0,0-.12-.19.63.63,0,0,0-.69-.13,4.07,4.07,0,0,1-4.64-1.1A14.74,14.74,0,0,1,552,251l-.14-.35v-.07l.28.36a.59.59,0,0,0,.37-.57.65.65,0,0,0-.05-.2.57.57,0,0,0-.37-.34,24.14,24.14,0,0,0-28.14,11.82Z"/><g class="cls-7"><path class="cls-8" d="M146.2,36.59a.76.76,0,0,1-.33-.08.74.74,0,0,1-.34-1c.45-.91.93-1.8,1.43-2.65a.74.74,0,1,1,1.28.74c-.48.83-1,1.69-1.38,2.57A.74.74,0,0,1,146.2,36.59Z"/><path class="cls-8" d="M193,90.32a.69.69,0,0,1-.2,0q-2.88-.78-5.73-1.61a.74.74,0,0,1,.42-1.42c1.88.55,3.79,1.08,5.7,1.6a.74.74,0,0,1-.19,1.46Zm-38.39-1.27h0a9.37,9.37,0,0,1-5.9-2.21.74.74,0,1,1,.93-1.15,7.93,7.93,0,0,0,5,1.88.74.74,0,1,1,0,1.48Zm5.58-1.77a.75.75,0,0,1-.63-.35.74.74,0,0,1,.23-1,21.06,21.06,0,0,0,4.33-3.73.74.74,0,0,1,1.1,1,23.22,23.22,0,0,1-4.64,4A.79.79,0,0,1,160.15,87.28ZM181.57,87a.85.85,0,0,1-.23,0c-2-.67-3.92-1.35-5.63-2a.74.74,0,0,1,.54-1.38c1.68.65,3.55,1.32,5.55,2a.74.74,0,0,1-.23,1.45Zm-11-4.36a.61.61,0,0,1-.32-.08,38.9,38.9,0,0,1-5.24-3,.74.74,0,1,1,.85-1.21,37,37,0,0,0,5,2.9.74.74,0,0,1-.33,1.41Zm-25.15-.13a.72.72,0,0,1-.64-.37,29,29,0,0,1-2.47-5.55.74.74,0,1,1,1.4-.47A28.64,28.64,0,0,0,146,81.35a.73.73,0,0,1-.63,1.11Zm23-3.67a.82.82,0,0,1-.44-.14.76.76,0,0,1-.15-1c1.23-1.66,2.34-3.29,3.32-4.85a.74.74,0,1,1,1.25.79c-1,1.59-2.13,3.25-3.38,4.94A.74.74,0,0,1,168.33,78.79Zm-7.22-3.22a.74.74,0,0,1-.6-.31A9,9,0,0,1,158.74,70a8,8,0,0,1,0-.84.74.74,0,0,1,1.47.15c0,.23,0,.46,0,.69a7.42,7.42,0,0,0,1.5,4.37.73.73,0,0,1-.61,1.16ZM141.5,71.3a.73.73,0,0,1-.72-.6,51.78,51.78,0,0,1-.75-6,.74.74,0,0,1,1.47-.11,53.59,53.59,0,0,0,.73,5.81.74.74,0,0,1-.59.86Zm33.07-2.58a.77.77,0,0,1-.32-.07.75.75,0,0,1-.34-1,26.12,26.12,0,0,0,2-5.4.74.74,0,1,1,1.44.32,27.22,27.22,0,0,1-2.08,5.72A.73.73,0,0,1,174.57,68.72ZM161.8,64.61a.79.79,0,0,1-.44-.14.76.76,0,0,1-.17-1l.32-.43a32,32,0,0,1,3.7-4.12.74.74,0,0,1,1,0,.75.75,0,0,1,0,1,29.77,29.77,0,0,0-3.53,3.93l-.29.4A.75.75,0,0,1,161.8,64.61Zm-21.14-5.13h0a.72.72,0,0,1-.71-.76,59.74,59.74,0,0,1,.48-6,.74.74,0,0,1,.83-.64.73.73,0,0,1,.64.83c-.25,1.93-.41,3.89-.47,5.84A.75.75,0,0,1,140.66,59.48Zm35.4-2a.72.72,0,0,1-.59-.29c-.85-1.11-2.53-1.23-4.59-.36a.74.74,0,0,1-1-.4.73.73,0,0,1,.4-1c2.72-1.15,5.07-.83,6.33.82a.74.74,0,0,1-.58,1.19Zm-33.85-9.69-.17,0a.73.73,0,0,1-.55-.89,51.91,51.91,0,0,1,1.7-5.77.74.74,0,1,1,1.39.5,53.47,53.47,0,0,0-1.65,5.61A.75.75,0,0,1,142.21,47.74Z"/><path class="cls-8" d="M201.66,92.59l-.19,0-2.87-.74a.75.75,0,0,1-.53-.9.73.73,0,0,1,.9-.53l2.87.73a.74.74,0,0,1,.53.91A.73.73,0,0,1,201.66,92.59Z"/></g><g class="cls-7"><path class="cls-8" d="M237.47,327.39a.75.75,0,0,1-.61-.33q-1.7-2.49-3.34-4.88a.74.74,0,0,1,.19-1,.73.73,0,0,1,1,.19q1.65,2.39,3.34,4.89a.74.74,0,0,1-.19,1A.8.8,0,0,1,237.47,327.39Zm-6.73-9.75a.74.74,0,0,1-.6-.31c-1.24-1.75-2.38-3.31-3.47-4.78a.74.74,0,1,1,1.18-.89c1.11,1.48,2.25,3,3.5,4.81a.75.75,0,0,1-.18,1A.76.76,0,0,1,230.74,317.64Zm-7.11-9.47a.74.74,0,0,1-.58-.27c-1.31-1.62-2.56-3.08-3.82-4.46a.74.74,0,1,1,1.09-1c1.28,1.4,2.55,2.88,3.88,4.53a.74.74,0,0,1-.11,1A.72.72,0,0,1,223.63,308.17Zm-8-8.72a.73.73,0,0,1-.51-.21c-1.46-1.38-2.95-2.66-4.43-3.81a.74.74,0,0,1-.13-1,.74.74,0,0,1,1-.13c1.51,1.18,3,2.5,4.54,3.91a.74.74,0,0,1-.51,1.28Zm-9.35-7.23a.76.76,0,0,1-.38-.11,47.87,47.87,0,0,0-5.14-2.74.74.74,0,1,1,.61-1.34,49.77,49.77,0,0,1,5.3,2.81.74.74,0,0,1-.39,1.38Zm-10.74-4.9a.83.83,0,0,1-.22,0,52.47,52.47,0,0,0-5.65-1.46.74.74,0,0,1-.58-.87.75.75,0,0,1,.87-.58,54.84,54.84,0,0,1,5.81,1.49.74.74,0,0,1-.23,1.45ZM154.44,286a.74.74,0,0,1,0-1.48c1.89,0,3.86-.12,5.86-.29a.74.74,0,1,1,.13,1.47c-2,.18-4,.28-6,.3Zm-5.91-.19h-.06a55.33,55.33,0,0,1-5.94-.76.74.74,0,1,1,.27-1.45,58.05,58.05,0,0,0,5.78.74.74.74,0,0,1-.05,1.47Zm17.71-.72a.74.74,0,0,1-.07-1.48c2.05-.2,4.05-.34,6-.42a.72.72,0,0,1,.77.71.74.74,0,0,1-.71.77c-1.87.08-3.85.22-5.86.41ZM184,285h-.08c-1.88-.19-3.84-.31-5.85-.36a.74.74,0,0,1-.72-.75.75.75,0,0,1,.76-.73c2,.05,4,.17,6,.37A.74.74,0,0,1,184,285Zm-47.06-1.3a.83.83,0,0,1-.22,0,46.78,46.78,0,0,1-5.61-2.16.74.74,0,0,1-.36-1,.73.73,0,0,1,1-.36,45.42,45.42,0,0,0,5.43,2.08.75.75,0,0,1,.49.93A.74.74,0,0,1,136.92,283.67Zm-10.71-4.95a.71.71,0,0,1-.39-.12,48,48,0,0,1-4.87-3.51.73.73,0,0,1-.11-1,.75.75,0,0,1,1-.11,47.94,47.94,0,0,0,4.73,3.41.74.74,0,0,1-.4,1.37ZM117,271.33a.73.73,0,0,1-.51-.21c-1.55-1.49-3-3-4.19-4.23a.74.74,0,1,1,1.08-1c1.18,1.24,2.6,2.71,4.14,4.19a.74.74,0,0,1,0,1A.76.76,0,0,1,117,271.33Zm-8.25-8.5a.75.75,0,0,1-.53-.23c-1.63-1.68-3-3-4.22-4.06a.74.74,0,0,1,1-1.11c1.28,1.12,2.65,2.43,4.32,4.14a.75.75,0,0,1,0,1.05A.73.73,0,0,1,108.73,262.83Zm-9-7.62a.67.67,0,0,1-.38-.11l-.08,0a.74.74,0,0,1,.74-1.29l.11.07a.73.73,0,0,1,.25,1A.75.75,0,0,1,99.71,255.21Z"/></g><g class="cls-7"><path class="cls-8" d="M607.91,337a26.34,26.34,0,0,1-5.15-.53.74.74,0,1,1,.3-1.45,24.4,24.4,0,0,0,5.71.48.74.74,0,0,1,.06,1.48Zm6.69-1a.74.74,0,0,1-.7-.51.73.73,0,0,1,.47-.93A21.31,21.31,0,0,0,619.5,332a.74.74,0,0,1,.81,1.24,23.1,23.1,0,0,1-5.48,2.66Zm-17.37-1.12a.67.67,0,0,1-.24,0c-1.9-.65-3.77-1.36-5.58-2.1a.72.72,0,0,1-.4-1,.74.74,0,0,1,1-.41c1.78.73,3.63,1.42,5.5,2.07a.74.74,0,0,1-.24,1.44Zm-11-4.48a.79.79,0,0,1-.32-.08c-1.81-.87-3.59-1.8-5.28-2.76a.74.74,0,0,1,.73-1.29c1.66.94,3.41,1.86,5.2,2.72a.74.74,0,0,1-.33,1.41Zm38.16-.75a.75.75,0,0,1-.52-.21.74.74,0,0,1,0-1.05,34,34,0,0,0,3.64-4.5.75.75,0,0,1,1-.19.74.74,0,0,1,.19,1,35.29,35.29,0,0,1-3.8,4.69A.75.75,0,0,1,624.44,329.56ZM576,324.47a.71.71,0,0,1-.41-.13c-1.67-1.1-3.3-2.28-4.84-3.49a.74.74,0,1,1,.91-1.17c1.52,1.19,3.11,2.34,4.75,3.43a.75.75,0,0,1,.21,1A.76.76,0,0,1,576,324.47Zm55.17-4.61a.64.64,0,0,1-.33-.08.74.74,0,0,1-.33-1c.23-.45.45-.9.67-1.36h-1.59a.74.74,0,0,1-.72-.75.73.73,0,0,1,.75-.73h2.24c.35-.82.69-1.65,1-2.5a.74.74,0,0,1,1.38.53c-.25.64-.5,1.28-.76,1.9l2-.15a.74.74,0,0,1,.15,1.47c-.92.09-1.85.16-2.77.2-.32.7-.66,1.4-1,2.07A.73.73,0,0,1,631.17,319.86Zm-64.47-2.69a.73.73,0,0,1-.51-.2c-1.47-1.36-2.88-2.78-4.21-4.24a.74.74,0,1,1,1.1-1c1.29,1.43,2.68,2.83,4.12,4.16a.74.74,0,0,1-.5,1.28Zm57-.24h-.11a42,42,0,0,1-5.88-1.29.74.74,0,0,1-.5-.92.75.75,0,0,1,.92-.5,40.84,40.84,0,0,0,5.68,1.25.74.74,0,0,1,.62.84A.73.73,0,0,1,623.71,316.93Zm17.66-.65a.74.74,0,0,1-.15-1.46,49.24,49.24,0,0,0,5.62-1.57.75.75,0,0,1,.94.46.74.74,0,0,1-.46.94,49.58,49.58,0,0,1-5.79,1.61A.41.41,0,0,1,641.37,316.28Zm-29-2.76a.72.72,0,0,1-.32-.08,28.78,28.78,0,0,1-5.15-3.22.74.74,0,0,1-.12-1,.74.74,0,0,1,1-.12,27.62,27.62,0,0,0,4.88,3.05.74.74,0,0,1-.33,1.41Zm40.15-1.08a.74.74,0,0,1-.32-1.41,45,45,0,0,0,5.07-2.87.74.74,0,0,1,1,.22.73.73,0,0,1-.21,1,47.16,47.16,0,0,1-5.24,3A.71.71,0,0,1,652.56,312.44Zm-17.12-3.61-.2,0a.74.74,0,0,1-.51-.91c.53-1.85,1-3.76,1.39-5.7a.75.75,0,0,1,.88-.58.73.73,0,0,1,.57.87c-.4,2-.88,3.93-1.42,5.81A.74.74,0,0,1,635.44,308.83Zm-76.69-.41a.71.71,0,0,1-.59-.3c-1.21-1.59-2.35-3.25-3.39-4.93a.73.73,0,0,1,.24-1,.74.74,0,0,1,1,.23c1,1.65,2.13,3.28,3.31,4.83a.75.75,0,0,1-.15,1A.73.73,0,0,1,558.75,308.42Zm44.54-2.27a.75.75,0,0,1-.6-.3,19.71,19.71,0,0,1-2.82-5.44.74.74,0,0,1,.47-.94.76.76,0,0,1,.94.48,18,18,0,0,0,2.6,5,.73.73,0,0,1-.16,1A.7.7,0,0,1,603.29,306.15Zm59.15-.19a.72.72,0,0,1-.56-.25.75.75,0,0,1,.07-1,40.89,40.89,0,0,0,4.13-4.09.74.74,0,1,1,1.11,1,41.69,41.69,0,0,1-4.27,4.24A.74.74,0,0,1,662.44,306Zm-109.92-7.6a.73.73,0,0,1-.66-.41,59.08,59.08,0,0,1-2.4-5.5.74.74,0,0,1,1.39-.52c.68,1.8,1.46,3.61,2.33,5.36a.74.74,0,0,1-.33,1A.67.67,0,0,1,552.52,298.36Zm85.3-1.13h-.09a.74.74,0,0,1-.64-.83c.25-1.94.43-3.9.54-5.84a.74.74,0,1,1,1.48.08c-.11,2-.3,4-.55,5.95A.75.75,0,0,1,637.82,297.23Zm32.4-.14a.78.78,0,0,1-.41-.12.74.74,0,0,1-.21-1,43.17,43.17,0,0,0,2.85-5.07.75.75,0,0,1,1-.34.73.73,0,0,1,.35,1,44.66,44.66,0,0,1-2.95,5.24A.75.75,0,0,1,670.22,297.09Zm-70.61-2a.74.74,0,0,1-.74-.73v-.32a24.65,24.65,0,0,1,.7-5.73.74.74,0,1,1,1.44.35,23.2,23.2,0,0,0-.66,5.38v.3a.73.73,0,0,1-.73.75Zm-51.26-7.82a.75.75,0,0,1-.72-.55,43,43,0,0,1-1.15-5.93.74.74,0,1,1,1.47-.17,41.3,41.3,0,0,0,1.11,5.72.74.74,0,0,1-.53.91Zm127-.83a.85.85,0,0,1-.23,0,.74.74,0,0,1-.47-.94,52.77,52.77,0,0,0,1.49-5.63.74.74,0,1,1,1.45.29,51.56,51.56,0,0,1-1.54,5.81A.74.74,0,0,1,675.32,286.45Zm-36.84-1a.74.74,0,0,1-.74-.73c0-2-.17-4-.38-5.84A.75.75,0,0,1,638,278a.74.74,0,0,1,.82.65c.21,1.91.34,3.92.38,6a.74.74,0,0,1-.72.76Zm-36.28-1.77a.8.8,0,0,1-.3-.06.76.76,0,0,1-.38-1,45,45,0,0,1,2.81-5.32.75.75,0,0,1,1-.25.74.74,0,0,1,.24,1,44.25,44.25,0,0,0-2.71,5.15A.77.77,0,0,1,602.2,283.64Zm75.51-8.76h-.08a.74.74,0,0,1-.66-.81c.18-1.89.28-3.85.29-5.84a.74.74,0,0,1,.74-.73h0a.74.74,0,0,1,.74.74c0,2-.11,4-.3,6A.74.74,0,0,1,677.71,274.88Zm-40.6-1.22a.74.74,0,0,1-.72-.57,32.14,32.14,0,0,0-1.8-5.49A.74.74,0,0,1,636,267a34,34,0,0,1,1.88,5.75.75.75,0,0,1-.55.89Zm-28.8-.14a.76.76,0,0,1-.45-.15.73.73,0,0,1-.14-1l.45-.6c1.13-1.46,2.26-2.81,3.36-4a.74.74,0,0,1,1.1,1c-1.07,1.19-2.18,2.51-3.29,3.94l-.44.58A.75.75,0,0,1,608.31,273.52Zm8-8.7a.72.72,0,0,1-.57-.27.73.73,0,0,1,.09-1,24,24,0,0,1,5.07-3.38.74.74,0,0,1,1,.35.75.75,0,0,1-.35,1,22.32,22.32,0,0,0-4.76,3.17A.73.73,0,0,1,616.31,264.82Zm15.77-1.74a.74.74,0,0,1-.53-.22,7.75,7.75,0,0,0-4.69-2.46.74.74,0,0,1,.17-1.47,9.17,9.17,0,0,1,5.58,2.9.73.73,0,0,1,0,1A.75.75,0,0,1,632.08,263.08Z"/></g></g></g></svg>