<svg xmlns="http://www.w3.org/2000/svg" viewBox="0 0 52 52"><defs><style>.cls-1{fill:#fff;}.cls-2{fill:#00b796;}</style></defs><title>icono-siguiente</title><g id="Capa_2" data-name="Capa 2"><g id="contenido"><circle class="cls-1" cx="26" cy="26" r="26"/><path class="cls-2" d="M37.66,27.11a.55.55,0,0,0,.08-.15,1.28,1.28,0,0,0,.11-.2l.06-.2a.84.84,0,0,0,.05-.17,2,2,0,0,0,0-.78.84.84,0,0,0-.05-.17l-.06-.2a1.28,1.28,0,0,0-.11-.2.55.55,0,0,0-.08-.15,1.79,1.79,0,0,0-.25-.31l-10-10a2,2,0,0,0-2.82,2.82L31.17,24H16a2,2,0,0,0,0,4H31.17l-6.58,6.59a2,2,0,1,0,2.82,2.82l10-10A1.79,1.79,0,0,0,37.66,27.11Z"/></g></g></svg>