<svg xmlns="http://www.w3.org/2000/svg" viewBox="0 0 104 104"><defs><style>.cls-1{fill:#fff;}.cls-2{fill:#0097c2;}.cls-3{fill:#00b796;}.cls-4{fill:#3daccc;}.cls-5{fill:#0ace73;}</style></defs><title>icono-ambiental</title><g id="Capa_2" data-name="Capa 2"><g id="contenido"><circle class="cls-1" cx="52" cy="52" r="52"/><path class="cls-2" d="M66.64,41.64,52,27V77A20.72,20.72,0,0,0,66.64,41.64Z"/><path class="cls-3" d="M37.36,41.64A20.72,20.72,0,0,0,52,77V27Z"/><path class="cls-4" d="M58.24,71.08a1.23,1.23,0,0,1-1.13-.72,1.25,1.25,0,0,1,.61-1.65,13.6,13.6,0,0,0,4-2.76,13.8,13.8,0,0,0,2.43-3.3,1.24,1.24,0,1,1,2.2,1.16A16.32,16.32,0,0,1,58.76,71,1.19,1.19,0,0,1,58.24,71.08Zm9.57-11.52c.07-.31.12-.62.17-.93a1.24,1.24,0,0,0-2.46-.36c0,.27-.09.53-.14.79a1.25,1.25,0,0,0,1,1.47,1.07,1.07,0,0,0,.25,0A1.24,1.24,0,0,0,67.81,59.56Z"/><path class="cls-5" d="M38.57,51a1.21,1.21,0,0,0,.88-.37l2.75-2.74a1.26,1.26,0,0,0,0-1.76,1.24,1.24,0,0,0-1.76,0l-2.75,2.75a1.24,1.24,0,0,0,0,1.75A1.23,1.23,0,0,0,38.57,51Z"/><path class="cls-5" d="M47.08,42.44a1.26,1.26,0,0,0,.88-.36l4-4V34.52l-5.8,5.8a1.24,1.24,0,0,0,.88,2.12Z"/><path class="cls-5" d="M39.57,57.52l-3,3a1.23,1.23,0,0,0,0,1.75,1.21,1.21,0,0,0,.88.37,1.23,1.23,0,0,0,.88-.37l3-3a1.24,1.24,0,0,0,0-1.76A1.26,1.26,0,0,0,39.57,57.52Z"/><path class="cls-5" d="M43.87,45.65a1.25,1.25,0,0,0,.88-.37l.44-.43a1.24,1.24,0,1,0-1.76-1.76l-.43.43a1.25,1.25,0,0,0,.87,2.13Z"/><path class="cls-5" d="M52,66.25,47.29,71a1.24,1.24,0,1,0,1.76,1.75l3-2.95Z"/><path class="cls-5" d="M48.63,62.55,52,59.19V55.67l-5.12,5.12a1.25,1.25,0,0,0,.87,2.13A1.25,1.25,0,0,0,48.63,62.55Z"/><path class="cls-5" d="M44.17,63.5,42.64,65a1.24,1.24,0,0,0,.88,2.12,1.26,1.26,0,0,0,.88-.36l1.53-1.53a1.26,1.26,0,0,0,0-1.76A1.24,1.24,0,0,0,44.17,63.5Z"/><path class="cls-5" d="M43.19,56.91a1.24,1.24,0,0,0,.87-.36L52,48.61V45.1l-9.69,9.69a1.24,1.24,0,0,0,.88,2.12Z"/></g></g></svg>