<svg xmlns="http://www.w3.org/2000/svg" viewBox="0 0 104 104"><defs><style>.cls-1{fill:#fff;}.cls-2{fill:#cc9b5b;}.cls-3{fill:#d2a98b;}.cls-4{fill:#efc9ac;}.cls-5{fill:#263232;}.cls-6{fill:#c59f84;}.cls-7{fill:#e2bea3;}.cls-8{fill:#ccc;}.cls-9{fill:#c29a6b;}.cls-10{fill:#f4777c;}</style></defs><title>icono-social</title><g id="Capa_2" data-name="Capa 2"><g id="contenido"><circle class="cls-1" cx="52" cy="52" r="52"/><path class="cls-2" d="M76.74,54.07l-5.9-6.51-19,27.22H68.82a7.91,7.91,0,0,0,7.92-7.92Z"/><path class="cls-3" d="M31.18,54.07A20.71,20.71,0,0,0,51.89,74.78V33.36A20.71,20.71,0,0,0,31.18,54.07Z"/><path class="cls-4" d="M72.6,54.07A20.71,20.71,0,0,0,51.89,33.36V74.78A20.71,20.71,0,0,0,72.6,54.07Z"/><path class="cls-5" d="M27.29,50.49a3.11,3.11,0,1,0,6.15.88,18.53,18.53,0,0,1,3-7.65h15.5V29.22A24.86,24.86,0,0,0,27.29,50.49Z"/><path class="cls-2" d="M70.33,51.37a3.13,3.13,0,0,0,3.08,2.7h3.33A24.86,24.86,0,0,0,51.89,29.22v14.5h15.5A18.38,18.38,0,0,1,70.33,51.37Z"/><path class="cls-4" d="M75.08,52.94a2.8,2.8,0,0,0-3-2.8A2.87,2.87,0,0,0,69.48,53v2.63A2.33,2.33,0,0,0,71.6,58,2.27,2.27,0,0,0,74,55.74a1.15,1.15,0,0,0,0-.19.73.73,0,0,1,.22-.6A2.77,2.77,0,0,0,75.08,52.94Z"/><path class="cls-3" d="M28.92,52.94a2.8,2.8,0,0,1,3-2.8A2.87,2.87,0,0,1,34.52,53v2.63A2.33,2.33,0,0,1,32.4,58,2.27,2.27,0,0,1,30,55.74a1.15,1.15,0,0,1,0-.19.73.73,0,0,0-.22-.6A2.77,2.77,0,0,1,28.92,52.94Z"/><circle class="cls-1" cx="43.81" cy="51.62" r="3.11"/><circle class="cls-1" cx="59.97" cy="51.62" r="3.11"/><path class="cls-6" d="M50.87,55.15,49.07,57a2.33,2.33,0,0,0,2.82,3.67v-5.9A1.41,1.41,0,0,0,50.87,55.15Z"/><path class="cls-7" d="M54.71,60.26a2.33,2.33,0,0,0,0-3.31l-1.8-1.8a1.41,1.41,0,0,0-1-.43v5.9A2.34,2.34,0,0,0,54.71,60.26Z"/><circle class="cls-8" cx="43.81" cy="52.44" r="1.42"/><circle class="cls-8" cx="59.97" cy="52.44" r="1.42"/><path class="cls-9" d="M41.75,64.43a14.44,14.44,0,0,0,10.14,4.14V64.43Z"/><path class="cls-10" d="M51.89,64.43v4.14A14.44,14.44,0,0,0,62,64.43Z"/></g></g></svg>