<svg xmlns="http://www.w3.org/2000/svg" viewBox="0 0 104 104"><defs><style>.cls-1{fill:#fff;}.cls-2{fill:#bf7101;}.cls-3{fill:#fe9601;}</style></defs><title>icono-economico</title><g id="Capa_2" data-name="Capa 2"><g id="contenido"><circle class="cls-1" cx="52" cy="52" r="52"/><circle class="cls-2" cx="52" cy="52" r="22.78"/><circle class="cls-3" cx="52" cy="52" r="18.64"/><path class="cls-2" d="M54.07,50.34h-.41v-5h4.55a1.66,1.66,0,1,0,0-3.31H53.66V39.57a1.66,1.66,0,0,0-3.32,0v2.49h-.41a5.8,5.8,0,1,0,0,11.6h.41v5H45.79a1.66,1.66,0,1,0,0,3.31h4.55v2.49a1.66,1.66,0,0,0,3.32,0V61.94h.41a5.8,5.8,0,1,0,0-11.6Zm-4.14,0a2.49,2.49,0,1,1,0-5h.41v5Zm4.14,8.29h-.41v-5h.41a2.49,2.49,0,1,1,0,5Z"/></g></g></svg>