<svg xmlns="http://www.w3.org/2000/svg" viewBox="0 0 54 54"><defs><style>.cls-1{fill:#fff;}.cls-2{fill:#ed1c24;}</style></defs><title>icono-noaplica</title><g id="Capa_2" data-name="Capa 2"><g id="contenido"><circle class="cls-1" cx="27" cy="27" r="27"/><path class="cls-2" d="M29.94,27l6.32-6.32a2.08,2.08,0,0,0-2.94-2.94L27,24.06l-6.32-6.32a2.08,2.08,0,0,0-2.94,2.94L24.06,27l-6.32,6.32a2.08,2.08,0,0,0,0,2.94,2.08,2.08,0,0,0,2.94,0L27,29.94l6.32,6.32a2.08,2.08,0,0,0,2.94,0,2.08,2.08,0,0,0,0-2.94Z"/></g></g></svg>