<svg xmlns="http://www.w3.org/2000/svg" viewBox="0 0 240 34.82"><defs><style>.cls-1{fill:#2c8599;}.cls-2{fill:#00aba8;}</style></defs><title>logo-biotica-color</title><g id="Capa_2" data-name="Capa 2"><g id="contenido"><rect class="cls-1" x="30.93" y="10.6" width="5.82" height="23.79"/><polygon class="cls-1" points="83.87 15.58 91.45 15.58 91.45 34.39 97.27 34.39 97.27 15.58 104.89 15.58 104.89 10.61 83.87 10.61 83.87 15.58"/><rect class="cls-1" x="117.74" y="10.6" width="5.82" height="23.79"/><path class="cls-1" d="M181.17,10.6h-3l-9.55,19.18h6v0h10.06l2.16,4.63h6.19ZM176.83,25l2.84-6,2.85,6Z"/><path class="cls-1" d="M153,28.2a6.77,6.77,0,0,1-3.71,1.12,6.65,6.65,0,0,1-6.79-6.81,6.75,6.75,0,0,1,12.24-4l.29.4,4.33-3.67-.32-.38a12.71,12.71,0,0,0-9.75-4.53,12.33,12.33,0,0,0-12.48,12.16A12.32,12.32,0,0,0,149.3,34.65a13.16,13.16,0,0,0,3.71-.54Z"/><path class="cls-1" d="M12.2,19.22A5,5,0,0,0,13.35,16a5.69,5.69,0,0,0-5.66-5.63H0V23.27H7.73c3.12,0,4.22,1.57,4.22,3.06,0,2.65-2.31,3-4.26,3H.22v4.79H10.33A7.28,7.28,0,0,0,18,26.57,7.54,7.54,0,0,0,12.2,19.22ZM6.27,18H4.74v-2.4H5.9c1.31,0,2.16.29,2.16,1.2C8.06,17.56,7.59,18,6.27,18Z"/><path class="cls-2" d="M69.18,12.48,66.27,17a6.82,6.82,0,0,1,3.27,5.79,7.05,7.05,0,0,1-14.1,0A6.83,6.83,0,0,1,58.7,17l-2.87-4.5a12,12,0,0,0-6.06,10.29c0,6.66,5.7,12.08,12.7,12.08S75.18,29.4,75.18,22.74A12,12,0,0,0,69.18,12.48Z"/><rect class="cls-2" x="60.53" y="9.98" width="3.88" height="6.75"/><path class="cls-2" d="M194.47,17.51c.09.12.09.12,0,.24C194.41,17.69,194.41,17.63,194.47,17.51Zm7.6,2c.12-.09.12-.12.09-.33-.18,0-.18,0-.31.06a.28.28,0,0,0-.18-.12c-.12-.06-.15-.06-.43,0h-.33s-.06,0-.09-.06a.17.17,0,0,0-.22.06h-1.12c-.07,0-.13,0-.16-.06s-.12,0-.15,0h-.73c-.18,0-.34,0-.52,0h-.09c-.15,0-.34.06-.46.06a.74.74,0,0,0-.27.12H197c-.15-.09-.3,0-.42,0h0a.37.37,0,0,1-.06-.09c-.07.21-.13.24-.28.21a.45.45,0,0,0-.18,0,.1.1,0,0,1-.09-.09.23.23,0,0,1,.06-.12h.06c0-.15-.06-.15-.18-.22s0-.06,0-.09.06-.09.09-.09h.06s0-.09,0-.09a.38.38,0,0,1-.18,0l-.13,0a.23.23,0,0,1,0-.12.26.26,0,0,0-.18-.25c-.09,0-.12-.09-.15-.12a.18.18,0,0,0-.06-.15,1.24,1.24,0,0,0-.13-.28,1.23,1.23,0,0,1-.09-.24h-.15s0-.06,0-.06a1,1,0,0,1-.09-.52,1.24,1.24,0,0,1,.09-.55.45.45,0,0,0,0-.18,1.35,1.35,0,0,1,.06-.34,1.46,1.46,0,0,0,0-.36c.06-.43.09-.86.15-1.32v-.18a2.19,2.19,0,0,0,0-.4,3,3,0,0,0,.07-.42s0,.09,0,.12c0,.18,0,.34,0,.52a.59.59,0,0,1,0,.21,5.77,5.77,0,0,1,0,.83,6.68,6.68,0,0,1-.09,1.09,1.75,1.75,0,0,1,0,.4.09.09,0,0,0,0,.06v-.09c0-.12.06-.21.06-.31a.57.57,0,0,0,.07-.33c0-.09,0-.18,0-.31a1.32,1.32,0,0,0,.06-.51.62.62,0,0,1,0-.4.61.61,0,0,0,0-.25,1.84,1.84,0,0,1,0-.42.54.54,0,0,0,0-.19v-.06c0-.12,0-.18,0-.27s-.06-.15-.09-.24l0,.06a.34.34,0,0,0-.1-.13v-.09a3.45,3.45,0,0,1,0-.67c0-.49,0-1,.06-1.4a1.54,1.54,0,0,1,0-.37V9.15c0-.33,0-.7,0-1V6.59a3,3,0,0,0,0-.55V5.43a.45.45,0,0,0,0-.18h-.13V5a.65.65,0,0,0,0-.24c-.06,0,0-.12,0-.15a2.38,2.38,0,0,0,.13-.49,1,1,0,0,1,.21-.4c.06-.09.12-.15.18-.24s.06-.12.12-.15a.32.32,0,0,0,.19-.22,1,1,0,0,1,.15-.18l.12-.12c.19-.09.34-.22.52-.31a3.2,3.2,0,0,1,.64-.33l.4-.13s0-.06,0-.12,0,0,0,.06l.18.09c0,.07,0,.07.06.1s.13.12.25.21a.57.57,0,0,1,.12.27c.06.16.15.31.21.46s0,.19.06.25a.79.79,0,0,0,.1.48.13.13,0,0,1,.06.13c.06.27.15.61.18.88a.22.22,0,0,0,0,.15v.22a.59.59,0,0,1,.06.33c0,.19.06.34.06.49a8.87,8.87,0,0,0,.06.89c0,.57,0,1.19,0,1.8,0,.39,0,.79,0,1.19a8.92,8.92,0,0,1,0,.91c0,.31,0,.67,0,1V12c-.06.37-.06.67-.09,1s0,.55-.06.82a1.23,1.23,0,0,1,0,.34s0,.06,0,.12.24-.06.37,0,0,0,0,.06.09.12.15.12.24.06.33.06a.39.39,0,0,0,.25-.06h.43a.19.19,0,0,1,.15.06c.06.06.15,0,.21,0a.57.57,0,0,1,.28-.09h.88a.18.18,0,0,1,.18.09c.06,0,.09-.06.13-.06s0,0,.06,0a.11.11,0,0,1,.09,0,.36.36,0,0,0,.24,0,.45.45,0,0,0,.28-.09.16.16,0,0,0,.15.09l.12.12c.06.09.12.09.21.15s.1.13.16.16a1.59,1.59,0,0,0,.3.18.11.11,0,0,0,.09,0,.32.32,0,0,1,.16,0c.09-.06.12,0,.15.15l0,0s0,0,0,.09a.42.42,0,0,1,.24.25.16.16,0,0,0,.12.06c.13,0,.19.12.28.24s.09.1.12.13c.06.24.28.36.37.51a.15.15,0,0,0,.12,0c.06,0,.09.06.12.06s.06.12,0,.15a.43.43,0,0,1-.06.18,2.05,2.05,0,0,0-.18.61c0,.12,0,.25-.12.28s0,.09-.1.09a.21.21,0,0,0-.09.18v.06c0,.12-.06.19-.15.19H205a.25.25,0,0,0-.22.09c-.06,0-.09.15-.18.15a.66.66,0,0,1-.24,0,1.43,1.43,0,0,1-.34.09,1.22,1.22,0,0,0-.27.15c-.06,0-.13.13-.22.16s0,0-.06-.06a4.4,4.4,0,0,0-.49.24c-.06-.06-.06-.09-.09-.09a1.13,1.13,0,0,0-.3,0q0,.09-.09,0a1.29,1.29,0,0,0-.34,0,.74.74,0,0,1,0,.36.1.1,0,0,0-.06,0s-.09,0-.09,0Zm-7-2.68a.67.67,0,0,1,0,.27c0,.06,0,.06.06.06a.61.61,0,0,0,0-.33Zm.18-11.29v0Zm.61,13.73h0l0,0s-.06,0-.06,0Zm.74.7c-.09.06-.28,0-.31-.15s0,0,0-.06a.7.7,0,0,0,.34.15A.1.1,0,0,1,196.55,20Zm2.07-.55h-.06v0l.06,0ZM199.38,5V5Zm.13,1.35a.27.27,0,0,1,0-.16C199.57,6.28,199.51,6.31,199.51,6.38Zm0,.7a.65.65,0,0,1,0-.34A.29.29,0,0,1,199.51,7.08Zm0,.64a.15.15,0,0,1,0,.21A.26.26,0,0,1,199.51,7.72Zm.24,2s0,0,0,0a0,0,0,0,1,0,0l0,0A0,0,0,0,0,199.75,9.67Zm.3,2.32h0c.07,0,.16.06.19.15A.47.47,0,0,1,200.05,12Zm.22.21s-.06,0-.06-.06S200.27,12.14,200.27,12.2Zm.09,7.23a0,0,0,0,1,0,0v0Zm.34,0v0h0A0,0,0,0,1,200.7,19.43Zm.12,0h0s0,0,0,0Zm1,.09s-.06,0-.09,0,.06-.06.09-.06.1.09.16.09Zm1-5.21v0Zm.22,5.7c-.07.06-.07.12-.13,0S203,20,203.08,20Z"/><path class="cls-2" d="M215,1.4a1,1,0,0,1,.28,0h.06s.06,0,.12,0a.09.09,0,0,0,.12,0l0-.06a.37.37,0,0,1,.43,0c.06.12.21.12.31.22s0,0,0,0a1.7,1.7,0,0,1,.45.09c.09,0,.13.06.16.06s.06,0,.09.06c0-.12-.06-.12-.06-.18s0-.13-.06-.16,0-.12,0-.18.06.15.09.18a.83.83,0,0,1,.15.19h.12l0,0c.06.12.06.12.15.15a.67.67,0,0,0,.16.24c.12.06.18.22.3.34a9.44,9.44,0,0,1,.61.88.1.1,0,0,0,.09.1c.06,0,.1.15.16.21s.15.27.24.4.09.09.12.18c.16.46.34.91.52,1.34.09.28.21.58.31.86,0,.06,0,.15.06.21s-.06,0-.06.12l.18.46c0,.06,0,.15.06.18a.62.62,0,0,1,.06.18c.12.28.21.52.34.8a6.61,6.61,0,0,0,.3.82,4.79,4.79,0,0,0,.22.58v0a2.83,2.83,0,0,0,.24.67c0,.15.12.31.15.46a11.54,11.54,0,0,1,.43,1.19c.15.43.27.88.43,1.31a6.16,6.16,0,0,1,.24,1c0,.18.06.33.09.49a.49.49,0,0,0,.15.27.54.54,0,0,1,.16.4c0,.09,0,.15-.06.24a.11.11,0,0,0,0,.09c0,.06,0,.09,0,.13a.12.12,0,0,0-.06.12.78.78,0,0,1,0,.3.91.91,0,0,0,0,.31c0,.09,0,.18,0,.24v.34c0,.12,0,.18,0,.3a3,3,0,0,1,0,.52.91.91,0,0,1-.22.64,1,1,0,0,1-.39.46,1.16,1.16,0,0,1-.34.21.74.74,0,0,0-.27.12c-.1.07-.19.07-.25,0s-.12-.06-.24-.06H221a.19.19,0,0,1-.21-.06.66.66,0,0,0-.25-.27c-.15-.12-.27-.25-.45-.19,0,0-.06-.06-.1-.09s0-.06-.09-.12c-.12-.21-.27-.4-.42-.64,0,0-.06-.06-.1-.06a1,1,0,0,1-.24-.28h0s0,.07,0,.1v.18s-.06,0-.06,0,0-.12,0-.15,0-.13,0-.16-.09.13-.19.06v0c0-.12,0-.18,0-.3a7.45,7.45,0,0,0,0-.82c0-.34-.12-.64-.15-1,0-.12,0-.24-.06-.34l-.09-.45c-.09-.34-.18-.67-.31-1.07,0,0,0-.09-.06-.15a.36.36,0,0,0-.36.21.61.61,0,0,1,0,.15.21.21,0,0,0-.19.09s0,.1-.06.1a.42.42,0,0,1-.27,0,.32.32,0,0,0-.28.12,3.82,3.82,0,0,1-.36.21s0-.12,0-.15a.7.7,0,0,0-.43,0c-.06,0-.09,0-.15,0a.78.78,0,0,0-.34.12.93.93,0,0,1-.27,0,.11.11,0,0,0-.09,0,.52.52,0,0,0-.37,0,8.85,8.85,0,0,0-.88.12c-.1,0-.13,0-.19,0s-.15,0-.21.06a1,1,0,0,1-.37.13c-.09,0-.15.09-.15.15s0,.15-.09.15-.34.09-.49.12c0,0,0,0,0,.06-.09.46-.15.89-.21,1.35,0,0,0,.06,0,.12a1.16,1.16,0,0,0-.25.43,2.74,2.74,0,0,1-.27.51,1.2,1.2,0,0,1-.43.46,1.66,1.66,0,0,1-.18.19c-.06.06-.09.12-.15.15a.14.14,0,0,0-.09.09.84.84,0,0,1-.4.3l0,0a.44.44,0,0,1-.46.06h-.46c-.06-.06-.09-.16-.18-.19a.51.51,0,0,0-.28-.24,3.14,3.14,0,0,0-.33-.24c-.09,0-.12-.16-.15-.22s-.06-.15-.13-.18a.68.68,0,0,1-.15-.15s-.06-.07-.09-.07-.15-.06-.24.07-.12.06-.19,0a.46.46,0,0,1-.18-.16c0-.09,0-.12-.09-.12s0,0-.06-.06,0-.12-.06-.15,0-.25-.09-.28,0-.06,0-.12a.47.47,0,0,1,0-.33c.06-.49.18-1,.27-1.5a5.51,5.51,0,0,1,.18-1,2.86,2.86,0,0,1,.13-.58c0-.07,0-.19,0-.31A.5.5,0,0,1,208,13c0-.13.06-.19.09-.31s0,0,0-.06c.09-.31.21-.61.3-.92.19-.48.4-1,.61-1.49s.37-.76.55-1.13a5.91,5.91,0,0,0,.37-.7,4.3,4.3,0,0,1,.27-.52c.19-.37.4-.76.58-1.13a7.23,7.23,0,0,0,.55-1.07A10.13,10.13,0,0,0,212,4.36c.12-.21.25-.42.4-.64,0-.06.12-.15.15-.21a1.22,1.22,0,0,1,.28-.31.68.68,0,0,0,.15-.15,1.4,1.4,0,0,1,.15-.3.61.61,0,0,1,.34-.31s0,0,.06,0,.06-.12.09-.12.12,0,.15-.06a.37.37,0,0,0,.12-.13h0c.16,0,.22-.12.34-.15a.19.19,0,0,0,.15-.15c.06,0,.09-.09.16-.15S214.88,1.59,215,1.4Zm.37,4.34a4.66,4.66,0,0,1-.31.91c-.12.37-.24.7-.36,1.07s-.4,1-.58,1.55c-.06.22-.12.46-.22.74a.13.13,0,0,0,.13.18.25.25,0,0,0,.18-.06.75.75,0,0,0,.24,0c.16,0,.37,0,.55-.06a4,4,0,0,0,.64-.09h.92a.4.4,0,0,0,.24,0V9.85a2.79,2.79,0,0,0-.12-.39c-.18-.55-.4-1.16-.61-1.77s-.37-1.25-.55-1.89a.35.35,0,0,0-.12-.19S215.37,5.7,215.37,5.74Zm.15,9.09a0,0,0,0,0,0,0s0,0,0,0h0A0,0,0,0,1,215.52,14.83ZM218,1.56h0Zm.37,15.49s0,0-.06,0l0,0v-.12l0,0s0,0,.06,0v.12Zm1-13.66v0h0A0,0,0,0,1,219.33,3.39Zm.16.3,0,0a0,0,0,0,0,0,0V3.63h0A.09.09,0,0,0,219.49,3.69Zm0,.15a.54.54,0,0,1,.09.22A.28.28,0,0,1,219.49,3.84Zm.21.46h0V4.21S219.7,4.27,219.7,4.3Zm2.75,7.57h0v.06h0Zm.73,2.65v0h0A0,0,0,0,1,223.18,14.52Zm.06,1.34a.11.11,0,0,1,0-.09.53.53,0,0,0,0-.43.26.26,0,0,1,0-.21c0-.09,0-.15,0-.24a.45.45,0,0,1,0,.18v.24a.29.29,0,0,0,.09.16.23.23,0,0,1,.06.15,1.47,1.47,0,0,1-.24.55A1.09,1.09,0,0,1,223.24,15.86Z"/><path class="cls-2" d="M234.83,1.46a4.69,4.69,0,0,0-.61-.18c-.06,0-.06,0-.18,0a7.21,7.21,0,0,0-.86-.21s.1.06.13.06c.21.09.45.15.61.24s.27.13.45.19a.11.11,0,0,0,.09,0,3.09,3.09,0,0,1,.37.18c.18.09.37.21.58.34a2.41,2.41,0,0,1,.7.58c.06.09.22.21.28.3l.12.21a.09.09,0,0,1,0,.06c.15.19.21.4.37.58a1.65,1.65,0,0,0,.33.46.23.23,0,0,0,.12.12v.1c-.09.09-.06.12-.06.15a.14.14,0,0,1,0,.21.77.77,0,0,0,0,.28v.58c0,.12-.09.21,0,.36a1.68,1.68,0,0,0,.15.34.57.57,0,0,1,.06.24.33.33,0,0,0,0,.25v.51a.15.15,0,0,1-.07,0,2,2,0,0,0,0-.42,4.31,4.31,0,0,1-.12-.49V6.53a.53.53,0,0,1-.12-.15q-.09,0-.09.09a4.34,4.34,0,0,0-.09.67s-.06.06-.06.09a1,1,0,0,1-.09.18.49.49,0,0,0-.07.25.57.57,0,0,1-.15.3.74.74,0,0,0-.15.31,2.32,2.32,0,0,0,.61.33s0-.06.09-.15,0-.09,0-.12v.12c0,.09,0,.15-.09.18s.12.13.09.22l0,0c.06,0,.12,0,.15.06l0,.06c0,.12.16.24.16.37a.32.32,0,0,0,.09.21,3.08,3.08,0,0,1,.36.4c.07.09.16.15.22.24s.09-.06.09-.06h0c.09.18.21.36.31.52a5.27,5.27,0,0,1,.58,1.13.28.28,0,0,0,.12.21.23.23,0,0,1,.06.15,3.63,3.63,0,0,1,.15.61v0h.12v.06a1.2,1.2,0,0,0-.09.55.63.63,0,0,1,0,.52v.25a.4.4,0,0,0-.06.27,1.69,1.69,0,0,1-.18.55c-.16.33-.25.61-.37.88,0,0,0,0,0,.06s0,0,0-.06v0h0l0,0h-.09l0,0a.8.8,0,0,1-.28.25c-.12,0-.18.18-.33.27a0,0,0,0,1,0,0s-.09,0-.12,0,0,.13,0,.16L238,16.6a0,0,0,0,0,0,0c-.06,0-.06.09-.09.15a.33.33,0,0,0-.15,0,1.91,1.91,0,0,0-.06.21h-.06c-.06.06-.16.09-.19.15s-.09.13-.18.13a0,0,0,0,0,0,0,1.05,1.05,0,0,1-.24.15c0,.06-.06.06-.09.09s-.19.09-.22.12a2.1,2.1,0,0,1-.33.22c-.1,0-.22.12-.34.15h0a5.34,5.34,0,0,1-.58.3,1.2,1.2,0,0,1-.4.16.38.38,0,0,1-.18.12,1.06,1.06,0,0,1-.18,0c-.06,0-.15.06-.22.09a.35.35,0,0,1-.21.06,4.45,4.45,0,0,0-.88.34c-.22.09-.4.15-.58.24a.14.14,0,0,0-.13.06c-.15,0-.15,0-.21.09a1.19,1.19,0,0,0-.33,0s-.13,0-.16.07-.09.09-.15.09a.36.36,0,0,1-.24.06.29.29,0,0,1-.22,0c-.24.06-.52,0-.76.09,0,.06,0,.12-.06.18l-.28-.09a.66.66,0,0,0-.24,0,3.76,3.76,0,0,0-.58,0h0c-.12-.09-.21,0-.37,0s-.12,0-.15,0,0-.09-.06-.12a1,1,0,0,1-.3,0,.17.17,0,0,0-.1,0s-.09.06-.12.06,0-.06-.06,0-.09,0-.15-.06h0c0,.06-.09.06-.09,0h-.06a.39.39,0,0,1-.37.06.65.65,0,0,0-.37-.09c-.12,0-.27-.12-.39-.15l0-.09c0-.1-.13-.13-.16-.16a1.58,1.58,0,0,0-.36-.09s-.06,0-.09-.06a.83.83,0,0,1-.34-.15,1.61,1.61,0,0,0-.34-.15.16.16,0,0,1-.06-.19.33.33,0,0,0,0-.15.58.58,0,0,1,0-.24.11.11,0,0,1,.09,0s.1,0,.1-.07-.07-.06-.1-.06h-.06l0,0c0-.09-.09-.15-.09-.21a2.22,2.22,0,0,0,0-.46v-.21a.55.55,0,0,0,0-.31.45.45,0,0,1,0-.18.14.14,0,0,0,.09-.15,5.78,5.78,0,0,1,0-.73.56.56,0,0,0-.06-.28,0,0,0,0,1,0-.06.29.29,0,0,0,.06-.21c0-.16-.06-.34-.06-.49v-.22a.22.22,0,0,0,0-.15h0c0-.06,0-.06,0-.09a2.87,2.87,0,0,1-.15-.73,3.57,3.57,0,0,0-.09-.61,5.62,5.62,0,0,0,0-.73c0-.16-.06-.31-.06-.43,0-.28-.07-.52-.1-.76V10.8a.57.57,0,0,1,0-.31.18.18,0,0,0-.12,0,3.55,3.55,0,0,0-.06-.55c0-.18-.09-.48-.09-.67s0-.24-.06-.39-.06-.52-.12-.8c0-.12,0-.21,0-.36a5.81,5.81,0,0,1-.07-.83c-.06-.36,0-.73-.06-1.09V5.4c-.06-.09-.09-.15,0-.21-.06-.16-.06-.25-.09-.31V4.76s0,0-.09,0l.09,0a.11.11,0,0,0,0-.09c-.06-.1,0-.19-.06-.31s0-.12-.06-.15-.06-.06-.06-.09c.06-.19,0-.37.15-.52,0-.09.09-.12.09-.25s0-.06.06-.09.07,0,.1-.09a.28.28,0,0,0,.15-.33s0,.06.12.06h0a.31.31,0,0,0,0-.25.56.56,0,0,0,.22-.21A.22.22,0,0,0,225,2.2l0,0c.06,0,.06,0,.06,0s.12-.12.18-.16.06-.12.09-.15,0,0,.06,0,.06,0,.06,0,.07-.06.13-.06.15-.09.15-.21V1.62c.06,0,.09,0,.18,0a.11.11,0,0,1,.09,0c.13,0,.16,0,.19,0a1.39,1.39,0,0,0,.33-.1.38.38,0,0,0-.12-.18s.06,0,.09,0a.69.69,0,0,0,.22.09s0,.09.09.06.09,0,.15,0a.22.22,0,0,1,.15,0,2.44,2.44,0,0,1,.37-.09c.06,0,.18,0,.21,0a1.31,1.31,0,0,1,.34,0,2.66,2.66,0,0,0,.49,0l.91-.09a3.48,3.48,0,0,1,.79,0h.43c0-.09,0-.09,0-.09s-.09,0-.15,0l-.7,0a8.24,8.24,0,0,0-.86,0,.71.71,0,0,1-.39.06.28.28,0,0,1-.22,0c0-.06-.06-.06-.09-.06a3.79,3.79,0,0,1-.52.09l-.18,0a.13.13,0,0,1,0-.15,1.77,1.77,0,0,1,.37-.06h.06c.21-.09.45-.06.61-.15v0c.18,0,.3,0,.42-.07s0,0-.06,0a.09.09,0,0,1,0-.06c.09,0,.15-.15.22-.15a2.43,2.43,0,0,1,.45,0,1.34,1.34,0,0,1,.49,0h.15c0,.15,0,.15-.12.15a2.19,2.19,0,0,1-.49,0c-.15,0-.3,0-.48.06s0,0,0,0h.13a7.49,7.49,0,0,1,.82,0h.24c.31,0,.61,0,.92,0s.46,0,.73.07c.09,0,.18.06.28.06h.12l0-.06a5.46,5.46,0,0,0-1-.1A.56.56,0,0,1,231,.76c0-.15.12-.18.27-.21h.28a1.46,1.46,0,0,0,.36,0,2,2,0,0,1,.58.15c.12,0,.19,0,.34,0a2.5,2.5,0,0,1,.67.22h0a3.5,3.5,0,0,1,.91.27l.31.09c.06,0,.09,0,.09.06Zm-10.19,1.1a0,0,0,0,1,0,0S224.64,2.59,224.64,2.56Zm.28-.46h0v.1C225,2.14,224.92,2.14,224.92,2.1Zm.24,12.48h0ZM226.93,0h0a0,0,0,0,1,0,0h0A0,0,0,0,1,226.93,0Zm1.37,1c0-.06,0-.06-.06-.06a2.6,2.6,0,0,1-.3.06.22.22,0,0,0-.13,0,.14.14,0,0,1-.15,0s-.12,0-.12,0-.12,0-.21,0-.13,0-.22,0l0,0c-.06,0,0-.06,0-.06a1.71,1.71,0,0,0,.43-.09.56.56,0,0,0,.24-.07,2.13,2.13,0,0,1,.46,0h0a.24.24,0,0,1,.25,0h.15a0,0,0,0,1,0,0c-.06,0-.12,0-.12.07v0A2,2,0,0,0,228.3,1Zm1.44,7.84a0,0,0,0,0,0,0,.16.16,0,0,1,.18-.13H230c.15,0,.15,0,.18.1.22.06.4-.1.64-.16.07-.06.13-.06.25-.06s.06,0,.12,0a1.26,1.26,0,0,1,.58-.12c.09,0,.12,0,.15-.06s-.15,0-.21,0,0-.12.12-.15a.74.74,0,0,0,.25,0s.06,0,.15,0a1.85,1.85,0,0,0,.39,0s0,0,.1,0,.39,0,.67,0l0,0a1.51,1.51,0,0,0,.36-.24.82.82,0,0,1,.1-.21c0-.07.09-.07.12-.1a.36.36,0,0,0,.06-.27s0-.06,0-.09.06-.06.09-.12a.51.51,0,0,1-.12-.13.16.16,0,0,1,.09-.15,1.5,1.5,0,0,1,.21-.24.52.52,0,0,0,0-.37.65.65,0,0,0-.15-.12A1,1,0,0,0,234,5.7a1.08,1.08,0,0,0-.22-.21c-.3-.21-.64-.33-.94-.52s-.46-.18-.73-.24l-.83-.18a.5.5,0,0,1-.18,0c-.12,0-.21,0-.34,0L230,4.39a3.51,3.51,0,0,0-.82-.06,4.92,4.92,0,0,1-.64.09.42.42,0,0,0-.28.06c.06.13,0,.25.09.37h.4c.06,0,.15,0,.18,0a.83.83,0,0,1-.27,0,.69.69,0,0,1-.25,0s-.06,0,0,.09a1.16,1.16,0,0,0,0,.34c0,.24.07.46.13.7s.12.61.21.89,0,.45.06.67a4.11,4.11,0,0,1,.15.94,1.63,1.63,0,0,0,.07.28c.15,0,.27,0,.36,0s0,.06.09.06Zm-.8,11c-.06,0-.06,0-.06,0h.06Zm.7-7.14v-.12a.26.26,0,0,0-.09.15A.15.15,0,0,1,229.64,12.63Zm.28.09a.4.4,0,0,1-.24.09c-.1.06-.1.09-.1.12s.06.07.16.07a.11.11,0,0,1,.12-.07c.06,0,.09,0,.09.07s0,.06,0,.06-.12,0-.18.09-.16.06-.1.15v.4c0,.24-.06.49.1.7v.09a1.89,1.89,0,0,0,.18.79s0,0,.06.06,0,0,.06.07.12,0,.15-.07l.31-.12a.38.38,0,0,1,.4,0,.42.42,0,0,1,.18.31v.3s0,0,0,0a3.5,3.5,0,0,0,.55.09h.09a.35.35,0,0,1,.27,0,.29.29,0,0,0,.22.06c.06,0,.12,0,.18,0a.11.11,0,0,0,.09,0,.42.42,0,0,1,.34-.1,2,2,0,0,0,.55-.06h.09c.12,0,.27,0,.33-.09H234l.39-.18a1.42,1.42,0,0,1,.46-.28.42.42,0,0,0,.12-.12.14.14,0,0,1,.09-.15.94.94,0,0,0,.19-.15.36.36,0,0,1,.18-.25c0-.06.09-.09.12-.15a1.85,1.85,0,0,0,.37-.37.3.3,0,0,0,0-.27v0a.22.22,0,0,0-.12-.24v-.1l-.22-.3L235.5,13c0-.1-.06-.13-.12-.22a3.17,3.17,0,0,0-.31-.21s-.09.06-.12,0-.09-.06-.09-.09.06,0,.09,0a0,0,0,0,0,0,0c0-.16-.15-.22-.3-.31a.4.4,0,0,0-.25-.09.88.88,0,0,0-.39.15,1.24,1.24,0,0,1-.4.15s-.06,0-.12,0a1.66,1.66,0,0,1-.52.22,3.56,3.56,0,0,1-.52.18l-.73.18a2.48,2.48,0,0,1-.73.1c-.06,0-.12,0-.22,0s-.06,0-.09,0v-.1s0,0,.06,0,.06,0,.13,0a3.46,3.46,0,0,1,.48-.06c.34-.09.67-.15,1-.24.06,0,.12,0,.12-.06v0s0,0-.06,0-.06-.09,0-.09.06-.07.09-.07c.19,0,.31.1.46,0h0c.06.07.15.07.25,0a4.86,4.86,0,0,1,.51-.18.52.52,0,0,1,.22-.12s0,0,0-.06a.13.13,0,0,0-.09,0,5.39,5.39,0,0,1-.68,0,1.69,1.69,0,0,0-.21,0,4.65,4.65,0,0,0-.61.06s-.06,0-.06,0,.09,0,.09-.12h-.3a.72.72,0,0,1-.25,0,.58.58,0,0,1-.24,0c-.06,0-.09,0-.12,0s-.22,0-.34,0-.21,0-.24.06h-.06a.87.87,0,0,0-.28,0c-.12,0-.24.12-.4.15a.11.11,0,0,1,0,.09,0,0,0,0,1,0,0h-.06s0,.06-.06.06a.09.09,0,0,0,0-.06H230v.06a1.27,1.27,0,0,0,0,.34S229.92,12.69,229.92,12.72Zm-.28-.24h0v0S229.64,12.45,229.64,12.48Zm.16.15c.12,0,.15-.06.12-.12s-.06-.09-.06-.19-.09,0-.09.1a.68.68,0,0,1,0,.21Zm.21,1.86c.09.09.09.09,0,.24A.23.23,0,0,1,230,14.49Zm.37-2.17a1.16,1.16,0,0,0,0,.34.28.28,0,0,1-.22,0l-.09,0c0-.09.06-.09.09-.12a.86.86,0,0,1,.13,0S230.35,12.42,230.38,12.32ZM230.26.73s-.07,0-.07-.06,0-.09.07-.09a.08.08,0,0,1,.09.09S230.32.73,230.26.73Zm.33,11.53h0v.06h0Zm.79-11a.71.71,0,0,0-.42-.09s-.06.06-.13.06A3.44,3.44,0,0,0,231.38,1.25Zm.22,11.23a1.3,1.3,0,0,0,.15,0,1.61,1.61,0,0,0,.52,0c0-.07.06,0,.06,0s0,.09,0,.09a.51.51,0,0,1-.21,0c-.25.06-.58.09-.83.15-.06,0-.12,0-.18.06a1.3,1.3,0,0,0-.15,0l0,0v0a0,0,0,0,1,0,0,1.75,1.75,0,0,1,.33-.15l.09,0s.06-.06.16,0A.11.11,0,0,0,231.6,12.48Zm-.58-.25v0h0V12.2Zm.12,0h0a0,0,0,0,1,0,0h0A0,0,0,0,1,231.14,12.26Zm2.84.16h0a0,0,0,0,1,0,0h-.06ZM234,7.29h0V7.2h0Zm.82-5.83v0a0,0,0,0,0,0,0V1.4Zm.15,0h0Zm.06,0s.07.07.1,0S235.07,1.49,235.07,1.46Zm.16.1c-.06,0-.06,0-.06-.07S235.2,1.53,235.23,1.56Zm.18,0h0Zm0,0s.09,0,.15.09-.12,0-.12-.09Zm.21.15c.1,0,.1,0,.13.09h.15a0,0,0,0,0,0,0h0c-.06,0-.06-.06-.15,0S235.65,1.8,235.62,1.74Zm.86.46c0-.06,0-.1-.06-.06h.06Zm0-.06c.06.09.06.09.12.12a.16.16,0,0,0-.12-.06Zm.88,6.07c-.06-.06-.06-.06,0-.1Zm.06-.25c0,.09,0,.12-.06.15S237.36,8.05,237.42,8Zm0-3.32h0Zm.06,3.17c0,.06,0,.12-.06.15,0-.12,0-.3,0-.46A.5.5,0,0,1,237.48,7.81Zm.34,9.09h.06v0Zm.12-11.5a.23.23,0,0,1,.09.06h0C237.91,5.46,237.91,5.46,237.94,5.4Zm.06.06v0s0,0,0,0Zm.13.52h0V5.92h0Zm.7,4.18c-.16-.09-.16-.09-.12-.18S238.8,10.07,238.83,10.16Zm.15,6q-.09,0-.09.09c-.06-.06-.06-.06,0-.09Zm0,0s-.06,0-.06,0H239s0,0-.06,0ZM240,13s0-.07,0-.1,0,0,0-.09S240,12.93,240,13Z"/></g></g></svg>